<?xml version="1.0" encoding="UTF-8" standalone="no"?>
<svg
   xmlns:dc="http://purl.org/dc/elements/1.1/"
   xmlns:cc="http://creativecommons.org/ns#"
   xmlns:rdf="http://www.w3.org/1999/02/22-rdf-syntax-ns#"
   xmlns:svg="http://www.w3.org/2000/svg"
   xmlns="http://www.w3.org/2000/svg"
   xmlns:sodipodi="http://sodipodi.sourceforge.net/DTD/sodipodi-0.dtd"
   xmlns:inkscape="http://www.inkscape.org/namespaces/inkscape"
   version="1.0"
   width="3840.000000pt"
   height="3840.000000pt"
   viewBox="0 0 3840.000000 3840.000000"
   preserveAspectRatio="xMidYMid meet"
   id="svg2"
   inkscape:version="0.92.5 (2060ec1f9f, 2020-04-08)"
   sodipodi:docname="education3.svg">
  <defs
     id="defs270" />
  <sodipodi:namedview
     pagecolor="#ffffff"
     bordercolor="#666666"
     borderopacity="1"
     objecttolerance="10"
     gridtolerance="10"
     guidetolerance="10"
     inkscape:pageopacity="0"
     inkscape:pageshadow="2"
     inkscape:window-width="1920"
     inkscape:window-height="1006"
     id="namedview268"
     showgrid="false"
     inkscape:zoom="0.06910964"
     inkscape:cx="3567.4309"
     inkscape:cy="3406.6202"
     inkscape:window-x="0"
     inkscape:window-y="0"
     inkscape:window-maximized="1"
     inkscape:current-layer="svg2"
     inkscape:snap-page="true"
     showguides="true"
     inkscape:guide-bbox="true" />
  <metadata
     id="metadata4">
Created by potrace 1.10, written by Peter Selinger 2001-2011
<rdf:RDF>
  <cc:Work
     rdf:about="">
    <dc:format>image/svg+xml</dc:format>
    <dc:type
       rdf:resource="http://purl.org/dc/dcmitype/StillImage" />
  </cc:Work>
</rdf:RDF>
</metadata>
  <path
     d="m 2230.3945,1474.9531 -1.8691,1.3223 -26.5547,18.793 0,266.0332 28.6758,17.6464 107.8965,0 28.6758,-17.6464 0,-266.0332 -28.4239,-20.1153 -108.4004,0 z m 4.5801,14.3985 99.2402,0 18.6036,13.166 0,250.5371 -18.3516,11.293 -99.7441,0 -18.3516,-11.293 0,-250.5371 18.6035,-13.166 z m 604.7941,-14.4 0,7.2 0,99.0843 112.4126,0 26.3843,-18.7093 0,-68.8656 -26.3843,-18.7094 -112.4126,0 z m 14.4,14.4 93.4251,0 16.5718,11.75 0,53.9843 -16.5718,11.75 -93.4251,0 0,-77.4843 z m -3.3093,-541.0684 0,5.63086 0,70.06644 75.709,-0.096 c 14.437,0 26.2363,-11.7969 26.2363,-26.23441 l 0,-23.0332 c 0,-14.43553 -11.7961,-26.23309 -26.2305,-26.23633 l -0.01,0 -75.709,-0.0977 z m 11.2441,11.25977 64.461,0.084 0,0 c 8.4023,0 14.9902,6.58849 14.9902,14.99024 l 0,23.0332 c 0,8.40169 -6.5879,14.99019 -14.9902,14.99019 l 0,0 -64.461,0.08 0,-53.17771 z M 2104.4263,3093.3438 c -10.8027,0.011 -17.8304,10.0406 -17.6551,17.4582 0.1753,7.4176 6.0849,17.8846 17.6551,17.9042 l 1325.2817,2.242 c 9.865,0.016 20.7523,-7.731 21.1232,-19.3118 0.3708,-11.5809 -11.5915,-19.319 -21.1232,-19.3117 z m -0.29,-105.7575 c -10.8027,0.01 -17.8304,10.5578 -17.6551,18.3575 0.1753,7.7997 6.0849,18.806 17.6551,18.8265 l 1325.5717,2.3575 c 9.865,0.017 20.7523,-8.1291 21.1232,-20.3065 0.3708,-12.1776 -11.5915,-20.3143 -21.1232,-20.3066 z m 124.349,-99.0711 c -10.8027,0.01 -17.8304,10.5108 -17.6551,18.2758 0.1753,7.7649 6.0849,18.72 17.6551,18.7426 l 1201.2227,2.347 c 9.865,0.019 20.7523,-8.093 21.1232,-20.2161 0.3708,-12.1233 -11.5915,-20.2245 -21.1232,-20.2161 z M 1863.2148,2783 c -10.8027,0.01 -17.8304,9.8526 -17.6551,17.1312 0.1753,7.2786 6.0849,17.5526 17.6551,17.5688 l 1566.4932,2.2 c 9.865,0.014 20.7523,-7.5861 21.1232,-18.95 0.3708,-11.364 -11.5915,-18.9561 -21.1232,-18.95 z m -8.4148,396.3 c -2.1,2.3 -2.1,2.9 -2.2,69.3 l -0.2,66.9 2.2,2.2 c 2.2,2.2 2.7,2.2 18.1,1.7 21,-0.7 1467.8,-1.1 1526.8,-0.3 25.3,0.3 47.6,0.2 49.5,-0.2 5.3,-1.2 6.2,-3.2 5.5,-11.9 -0.3,-4.1 -0.7,-34 -0.9,-66.3 l -0.3,-58.9 -2.2,-2.1 c -2.1,-2.1 -2.6,-2.2 -21.9,-1.7 -32.4,0.8 -1495.6,0.6 -1535.5,-0.3 l -36.8,-0.7 z M 2943,2102 c -19.5,1.5 -34.4,6.9 -44.8,16.4 -4,3.6 -8.1,11.9 -10.6,21.7 l -2.5,9.4 0.3,125 c 0.3,142 -0.3,132.5 8.5,145.1 3.6,5.2 6.1,7.6 11.6,10.9 16,9.5 26.6,11.2 70.4,11.4 17.9,0.1 32.7,0.4 33,0.5 1.3,0.8 91.2,-1.4 97.8,-2.3 8.5,-1.2 17.8,-4.8 25.3,-9.8 8.6,-5.8 9.9,-7.2 14.9,-16.8 l 4.6,-9 0.3,-74.5 c 0.2,-52.9 -0.1,-75.2 -0.9,-77.1 -0.6,-1.5 -2.3,-3.2 -3.7,-3.8 -1.9,-0.7 -23.5,-1 -68.5,-0.8 l -65.9,0.2 -2.5,2.9 -2.5,2.9 0.2,25.1 c 0.2,13.8 0.7,26.6 1.2,28.4 1.5,5.2 3.2,5.6 26.3,5.5 22.5,-0.1 25.7,0.5 27.4,5 0.5,1.2 0.8,13.5 0.7,27.3 -0.1,27.4 -0.1,27.5 -6.1,29.9 -2.2,0.9 -13.6,1.2 -40.6,1.1 -36.1,-0.1 -37.8,-0.2 -39.9,-2.1 -1.2,-1.1 -2.6,-2.8 -3.2,-3.8 -0.9,-1.7 -1.1,-86.5 -0.5,-170.2 0.2,-24.2 0.4,-27.3 2,-29.7 1,-1.4 2.6,-2.9 3.5,-3.3 3,-1.2 74.1,-0.5 78,0.8 5.7,1.9 6.3,4.1 6.7,25.7 0.2,14.1 0.6,19.5 1.6,20.7 3.4,4 6.4,4.3 44.8,4.3 34.8,0 37,-0.1 39.2,-1.9 l 2.4,-1.9 0.3,-33.4 c 0.2,-21.1 -0.1,-35.6 -0.8,-39.7 -1.3,-7.5 -5.7,-16.6 -10.6,-22.1 -7.3,-8.1 -20.8,-14.8 -34.5,-17.1 -8.6,-1.4 -145.4,-2.2 -162.9,-0.9 z m -1268.2,0.2 c -0.9,0.7 -2.1,2.4 -2.6,3.8 -0.6,1.5 -0.8,60.9 -0.5,149.5 0.2,84.6 0,153.6 -0.5,162.5 -0.5,8.5 -0.5,16.8 -0.1,18.5 1.6,5.9 1.8,5.9 43.3,6.2 41.6,0.2 43.6,0 45.7,-5.4 0.8,-2 0.8,-15.8 0,-50.6 -0.6,-28.8 -0.7,-48.7 -0.1,-50.1 1.8,-4.9 3.4,-5.2 24.7,-5 11,0.1 21.3,0.5 23,0.8 4.3,1 5.8,3.6 11.3,20 4.7,14.1 9.7,27.8 15.1,41.1 1.5,3.8 3.5,9.5 4.4,12.5 1,3 2.3,6.5 3.1,7.6 1.4,2.4 8.4,19.9 8.4,21.2 0,1.4 5.4,6 8.3,7.1 1.8,0.7 16.4,1.1 40.8,1.1 31.6,0 38.5,-0.2 40.9,-1.5 3.9,-2 4.6,-5.9 2.2,-12.6 -1.1,-3 -3.4,-9.5 -5.2,-14.4 -1.7,-5 -4,-10.4 -4.9,-12 -1,-1.7 -3.3,-6.8 -5.1,-11.5 -1.8,-4.7 -5,-12.4 -7.1,-17.2 -2.2,-4.7 -3.9,-8.9 -3.9,-9.3 0,-0.3 -1.3,-3.4 -3,-6.9 -8.8,-19 -10.8,-27.6 -7.2,-30.9 1,-1 4.3,-2.4 7.3,-3.3 7.2,-2.1 17.8,-12.7 20.8,-20.8 4,-10.8 4.3,-15.8 4.6,-85.1 0.3,-73.3 0,-76.9 -5.4,-89 -4.6,-10 -18.6,-20.4 -31.1,-23.1 -3.6,-0.8 -8.3,-1.9 -10.5,-2.6 -6.2,-1.8 -214.4,-2.4 -216.7,-0.6 z m 170.7,66.2 c 2.7,1.2 3.6,2.2 4.3,5.3 0.5,2.1 0.8,22.8 0.8,46 l -0.1,42.3 -2.8,2.7 -2.7,2.8 -39.3,0.5 c -43.9,0.6 -44.7,0.6 -46.7,-5.6 -0.6,-1.8 -0.9,-3.8 -0.5,-4.4 0.4,-0.6 0.8,-20.3 1,-43.8 l 0.3,-42.7 2.7,-2.2 2.6,-2.3 38.5,0 c 31,0 39.1,0.3 41.9,1.4 z m 748.3,-67.4 c -60.5,0.5 -65.9,0.6 -67.8,2.2 -1.1,1 -2,2.3 -2,3 -0.1,0.7 -0.1,75.5 -0.2,166.2 l -0.1,165 2.2,2.2 c 1.3,1.3 3.8,2.6 5.8,3 2,0.4 19.7,0.5 39.5,0.2 34,-0.4 36,-0.6 38.6,-2.5 1.4,-1.1 2.9,-3.3 3.3,-5 0.3,-1.6 0.2,-18 -0.2,-36.4 -0.4,-18.4 -0.9,-77.4 -1,-131.3 l -0.3,-97.9 2.3,-1.8 c 3.1,-2.5 7.4,-2.4 10.5,0.3 2.3,2 2.8,3.7 4.2,14.3 0.8,6.6 2.2,16.7 2.9,22.5 0.8,5.8 1.9,14.1 2.5,18.5 0.6,4.4 2.9,20.4 5.1,35.5 4.1,27.5 5.7,38.9 8.4,59.5 0.8,6 2.6,18.6 4,28 1.4,9.3 3.2,22.3 4,28.9 0.8,6.5 1.9,13.5 2.5,15.5 0.5,2 1,6.1 1,9.2 0,3.1 0.6,9.4 1.4,14 0.8,4.6 1.8,11.5 2.1,15.4 0.9,8.4 2.9,11.1 9,12 6.4,1 143.5,1.2 147.2,0.2 1.8,-0.4 3.7,-1.6 4.2,-2.5 0.9,-1.8 2.7,-15.7 2.3,-18.2 -1.6,-9 -2.6,-190.5 -1.4,-258 0.5,-30 0.6,-55.5 0.1,-56.7 -0.4,-1.2 -2,-3 -3.4,-3.9 -2.4,-1.6 -6.5,-1.8 -39.3,-1.9 -27,-0.1 -37.5,0.2 -39.9,1.1 -6.2,2.4 -6.2,2.1 -5.3,41.4 0.5,19.5 1,78.9 1.1,132 0.2,76.2 0,97 -1,98.8 -2.5,4.6 -8.4,4.8 -12.3,0.5 -1.8,-2 -4.3,-12.9 -5.3,-23.3 -0.3,-3.6 -1.7,-13 -3,-21 -2.5,-14.9 -6.9,-47 -8.6,-62 -0.6,-4.7 -1.8,-13.7 -2.9,-20 -1.1,-6.3 -2.2,-14.7 -2.5,-18.5 -0.7,-7.9 -1.9,-16.6 -4.6,-33.7 -1.1,-6.4 -1.9,-13.1 -1.9,-15 0,-1.8 -0.9,-8.3 -1.9,-14.3 -1.1,-6.1 -2.7,-17.1 -3.6,-24.5 -1.6,-13.4 -5.1,-34.9 -6.1,-37.5 -1.6,-4 -7.4,-4.2 -89.6,-3.5 z m -587.1,0.8 c -1.4,0.9 -3,2.6 -3.5,3.8 -0.7,1.4 -0.9,36.9 -0.7,102 0.1,55 0,127.8 -0.4,161.9 -0.4,34.1 -0.3,63.4 0.1,65.1 0.4,1.7 2,4.1 3.4,5.5 l 2.6,2.4 37.1,0.1 c 49.2,0.2 47.2,1.1 46.2,-23.1 -1.9,-45.9 -3.1,-243.2 -1.5,-248 1.9,-5.8 6.9,-7.2 11.5,-3.2 2.8,2.4 3.9,7.5 7.5,37.2 0.7,5.5 2.1,14.3 3.1,19.7 1.1,5.3 1.9,11.5 1.9,13.8 0,2.2 0.7,6.9 1.5,10.3 0.8,3.4 3.5,21.3 6,39.7 2.5,18.4 5.4,39.3 6.5,46.5 1,7.1 2.4,17.3 3,22.5 0.6,5.2 1.7,12.9 2.5,17 0.8,4.1 1.9,12.9 2.5,19.5 0.6,6.6 2,18.7 3,26.9 1.7,14 2,15.1 4.8,17.8 l 2.9,2.9 74,0.1 c 40.8,0 75,-0.3 76.1,-0.6 1.1,-0.4 2.8,-1.9 3.7,-3.3 2,-3 2.1,-11.8 1,-94.8 -0.3,-24.8 -0.2,-87.8 0.3,-140 0.4,-53 0.4,-96.2 0,-97.6 -1.8,-5.3 -2.8,-5.4 -44.7,-5.1 -41.7,0.4 -42.3,0.5 -43.4,5.7 -0.2,1.5 -0.1,30 0.3,63.4 0.4,33.3 0.8,92.5 0.9,131.6 0.2,70.1 0.2,71 -1.8,73.2 -3.1,3.3 -5.9,3.8 -9,1.6 -3.8,-2.9 -4.9,-5.8 -6.1,-16.3 -0.6,-5.2 -1.7,-13.6 -2.5,-18.5 -1.5,-8.8 -5.8,-38.3 -9,-61.5 -0.8,-6.3 -2.6,-18.5 -4,-27 -1.3,-8.5 -2.6,-18.2 -3,-21.5 -0.3,-3.3 -1,-8.5 -1.6,-11.5 -1.6,-9.1 -6.7,-46.3 -8.9,-66 -3.1,-26.9 -5.6,-44.1 -7,-47.2 -2.7,-5.8 -1.1,-5.6 -80.2,-6.1 -64,-0.3 -72.9,-0.2 -75.1,1.1 z m -600.7,-0.7 c -3,0.3 -6.2,0.9 -7.1,1.3 -2.8,1.3 -4.9,6.4 -6,14.8 -0.5,4.6 -1.6,10.3 -2.4,12.8 -0.8,2.5 -2,8.2 -2.5,12.8 -1.3,9.8 -3.2,20.3 -5.3,29.2 -3.1,12.5 -6.7,30.7 -6.7,33.3 0,1.4 -0.9,6.4 -2,10.9 -1,4.6 -4,19.3 -6.5,32.8 -2.5,13.5 -6.1,32.6 -8,42.5 -1.9,9.9 -4.4,23.4 -5.5,30 -1.2,6.6 -2.7,14.5 -3.5,17.5 -2.4,9.6 -5.3,23.2 -7,32.5 -1.5,8.4 -7.7,37.6 -11,52.5 -0.9,3.6 -1.5,7.8 -1.5,9.3 0,4 2.6,8.6 5.3,9.2 3.3,0.8 78.9,-0.1 81,-1 2.7,-1.1 4.4,-5.3 6.2,-15.1 0.9,-4.9 2.5,-12.7 3.6,-17.4 1,-4.7 2.3,-13.5 2.9,-19.5 1.3,-12.9 2,-14.9 5.8,-17.3 2.7,-1.5 6.5,-1.7 43.1,-1.6 28.3,0.1 41,0.5 43,1.4 3.7,1.5 4.8,4.1 6.2,14.7 1.8,14.4 8.9,50.6 10.1,52 3.3,4 5,4.1 45.5,3.9 36.3,-0.2 39.3,-0.3 41.2,-2 3.1,-2.8 3.4,-6.6 1.2,-15.9 -1.2,-4.6 -2.1,-9.6 -2.1,-11 0,-1.3 -0.6,-4.3 -1.4,-6.5 -0.8,-2.2 -2.9,-11.1 -4.6,-19.9 -1.7,-8.7 -3.7,-18.3 -4.5,-21.3 -3.1,-12 -11.1,-53.1 -15.6,-80 -0.8,-4.9 -4.2,-22.2 -8.4,-43.5 -0.8,-3.9 -3,-14.7 -5,-24 -1.9,-9.4 -4.4,-22.2 -5.5,-28.5 -2,-12.1 -6.4,-35.4 -8.1,-43 -0.6,-2.5 -2.6,-12.4 -4.5,-22 -1.9,-9.6 -4.1,-18.5 -4.9,-19.7 -2.9,-4.3 -4.9,-4.4 -79.2,-4.6 -39,-0.1 -73.3,0.1 -76.3,0.4 z m 79,67.4 c 1.1,1.3 2.1,5.7 7.4,31.5 1.9,9.4 7.5,37.4 9.1,46 0.7,3.6 2.7,13.1 4.4,21.2 1.7,8.1 3.1,15.8 3.1,17.1 0,1.3 0.9,5 2,8.2 2.2,6.3 1.9,9.4 -1.1,12.1 -1.8,1.6 -4.6,1.7 -30,1.6 -23.7,-0.1 -28.5,-0.3 -30.5,-1.7 -4.4,-2.8 -4.3,-4.2 1.6,-29 1,-4.4 2.4,-11.2 3,-15 0.6,-3.9 1.9,-10.4 3,-14.5 1,-4.1 2.6,-12.2 3.5,-18 0.9,-5.8 2.7,-14.9 4.1,-20.2 1.3,-5.3 2.4,-11.7 2.4,-14.1 0,-2.4 0.7,-6.4 1.6,-8.8 0.8,-2.4 1.9,-6.6 2.5,-9.3 0.5,-2.7 1.7,-5.8 2.6,-6.8 2,-2.3 9.5,-2.5 11.3,-0.3 z m -432,-67.3 c -1,0.4 -2.6,1.8 -3.6,3.2 -1.5,2.4 -1.6,9.4 -1.4,85.9 0.2,45.7 0.3,120.2 0.3,165.4 l 0,82.2 2.1,2 c 2.2,2 3.5,2.1 106.6,2.7 125.1,0.7 126.8,0.6 130,-0.6 5.2,-2.1 5.5,-3.4 5.8,-31.9 0.2,-14.6 0.1,-27.5 -0.3,-28.8 -0.3,-1.2 -2,-3.1 -3.8,-4 -3.7,-2.1 -12.5,-2.2 -98.4,-1.3 l -49.2,0.5 -2.5,-2.5 -2.5,-2.5 -0.3,-31.8 -0.3,-31.9 2.5,-2 c 2.4,-1.9 3.5,-1.9 73,-1.2 l 70.5,0.7 2.9,-2.4 2.8,-2.5 0.2,-26.9 c 0.3,-30.9 0,-32.5 -6.1,-34.6 -4.6,-1.5 0.7,-1.5 -76.8,-0.2 -59.1,1 -63.2,0.9 -65.5,-0.7 l -2.5,-1.7 -0.5,-30.4 c -0.3,-16.7 -0.2,-31.7 0.2,-33.3 1.4,-5.7 -1.9,-5.5 76.3,-4.9 50.1,0.4 72.8,0.2 74.7,-0.5 5.6,-2.3 5.8,-3.4 6,-33.3 0.2,-29 -0.1,-31 -4.4,-32.6 -2.8,-0.9 -233.2,-1.1 -235.8,-0.1 z m 1326,-1.1 c -5.8,1.1 -9.2,3.7 -10.5,8 -0.8,2.3 -0.8,18.5 -0.3,51.4 0.5,26.4 0.7,99.7 0.4,162.9 l -0.4,115 3.1,2.9 3.2,3 39.9,-0.6 c 34,-0.4 40.1,-0.7 41.4,-2.1 1.4,-1.3 1.5,-19.6 1.5,-168.8 l -0.1,-167.2 -2.1,-1.7 c -1.7,-1.4 -5.5,-1.8 -21.3,-2.3 -10.6,-0.4 -24.7,-0.6 -31.3,-0.4 -6.6,0.2 -13.6,0 -15.5,-0.3 -1.9,-0.4 -5.5,-0.3 -8,0.2 z m -1609.9,0.5 c -5.6,2.4 -5.3,-8.9 -5.3,169.9 0,183.1 -0.5,168.5 6.3,172.1 2.7,1.4 4.6,1.4 13.8,0.6 6.7,-0.6 49.3,-0.8 115.3,-0.5 l 104.8,0.5 3,-3 3,-3 0,-26.7 c 0,-29.6 -0.5,-32.8 -5.7,-34.2 -3,-0.9 -62.5,-1.1 -114.6,-0.4 l -31.8,0.4 -2.4,-2.3 c -2.3,-2.2 -2.4,-2.4 -1.9,-16.4 0.5,-15.3 1.5,-174 1.3,-221 0,-15.9 -0.5,-29.9 -0.9,-31.2 -1.9,-4.9 -3.7,-5.2 -44.4,-5.5 -26,-0.3 -38.7,-0.1 -40.5,0.7 z m 1886.1,-704.3 c -1.4,1.6 -1.6,5 -1.4,28 0.2,21.9 0.4,26.4 1.7,27.7 1.3,1.2 5.2,1.6 20,2 13.2,0.4 18.8,0.9 19.7,1.8 1.1,1.1 1.3,33.6 1.5,171.2 0.2,164.1 0.1,170 -1.7,172.2 -1.8,2.2 -2.3,2.3 -20.2,2.3 -10.1,0 -18.9,0.4 -19.5,0.8 -1,0.6 -1.3,7.5 -1.3,28.6 0,23.4 0.2,28.1 1.5,29.1 1.1,0.9 23,1.2 97.5,1.3 l 96.1,0.1 2.2,-2.2 c 2.2,-2.2 2.2,-2.7 2,-26.5 -0.1,-13.3 -0.2,-25 -0.3,-26 0,-0.9 -0.9,-2.6 -2,-3.7 -2,-2 -2.9,-2 -18.4,-1.5 l -16.3,0.6 -2.7,-3.1 c -1.6,-2 -2.6,-4.3 -2.6,-6.3 0.1,-1.8 -0.2,-30.9 -0.5,-64.8 l -0.7,-61.6 3.3,-2.7 c 2.9,-2.5 3.9,-2.7 7.9,-2.2 6.3,0.9 205.1,2 208.3,1.2 1.4,-0.3 4.6,-2.3 7,-4.4 2.5,-2 8.4,-6.6 13.2,-10.2 4.8,-3.6 11,-8.3 13.8,-10.5 13.6,-10.7 18.4,-14.3 20.6,-15.5 1.4,-0.7 4.5,-3.1 7,-5.4 2.5,-2.3 7.8,-6.4 11.6,-9.1 8.1,-5.7 17.7,-13.3 18.7,-14.9 0.4,-0.6 0.7,-27.2 0.8,-59.1 0,-31.9 0.2,-59.3 0.4,-60.9 0.8,-6.2 -1.2,-8.6 -16.6,-20.1 -3.5,-2.6 -23,-17.6 -33.8,-26 -4.7,-3.6 -12.8,-9.8 -18,-13.7 -5.2,-4 -11.8,-9.1 -14.6,-11.5 -3.9,-3.3 -6.4,-4.6 -10.5,-5.3 -3.3,-0.6 -77.6,-1 -188.7,-1.2 -175.9,-0.3 -183.4,-0.2 -185,1.5 z m 308.4,58.2 c 1.7,0.3 5.3,2.4 8.1,4.8 5.9,5 12.5,10.1 25.3,19.7 5.2,3.9 9.9,7.9 10.5,8.8 0.6,1.1 0.9,16.3 0.8,41 -0.2,43.2 0.1,41.3 -6.5,46.6 -5.4,4.4 -31,23 -34.8,25.3 -3.5,2.1 -4.4,2.1 -78.3,2.5 l -74.8,0.5 -1.9,-2.4 c -1.7,-2.2 -1.8,-5.6 -1.5,-73.6 0.1,-39.1 0.3,-71.3 0.4,-71.4 2.3,-2.9 2.7,-2.9 76.2,-2.6 40.4,0.2 74.8,0.6 76.5,0.8 z m -356.3,-93.3 c -1.5,1.6 -1.6,5.5 -1.3,41.1 0.2,21.5 0.3,48.6 0.2,60.2 -0.1,11.5 0.1,21.7 0.3,22.5 0.3,0.9 1.9,2.4 3.5,3.3 2.6,1.6 5.2,1.8 19.5,1.6 13.8,-0.2 16.8,0 18.1,1.3 1.4,1.3 1.5,16 1.6,136.7 0,99.8 -0.3,135.5 -1.1,136.5 -0.9,1.1 -5.2,1.4 -19.4,1.4 -18.1,0.1 -18.2,0.1 -20.4,2.6 -2.1,2.5 -2.1,2.7 -2.2,55.3 0,29 -0.4,56.5 -0.7,61 -0.6,7.9 -0.6,8.2 2,10.8 2.7,2.7 2.8,2.7 12.4,2 12,-1 242.6,-0.9 261.4,0.1 l 13.7,0.7 2.9,-2.9 2.8,-2.9 -0.3,-61.9 c -0.1,-42.9 -0.6,-62.3 -1.3,-63 -0.7,-0.7 -7.6,-1.1 -19.5,-1.1 -17.4,0 -18.6,-0.1 -20.5,-2.1 -2,-2 -2.1,-3 -2.2,-32.3 l -0.1,-30.2 2.4,-2.5 c 2.4,-2.6 2.5,-2.6 13.9,-2 6.3,0.3 47.8,0.9 92.1,1.2 79.3,0.7 80.6,0.6 85.1,-1.4 2.5,-1.1 6.3,-3.5 8.4,-5.4 2.2,-1.8 5.7,-4.7 7.9,-6.3 2.2,-1.6 6.7,-5.2 10,-8 6.2,-5.3 21.3,-16.6 30,-22.5 2.8,-1.9 7.3,-5.3 10,-7.7 2.8,-2.4 6.7,-5.4 8.7,-6.6 4.5,-2.7 22.9,-16.4 28.3,-21 2.2,-1.9 6.3,-5.1 9.2,-7.1 2.8,-2 5.4,-4.4 5.8,-5.4 0.4,-1.2 0.9,-128.4 0.5,-154.4 0,-3 -6.7,-9.4 -17.3,-16.5 -8.9,-5.9 -15.6,-11.1 -33.2,-25.7 -2.2,-1.8 -5.9,-4.3 -8.2,-5.4 -4.2,-2.2 -12.3,-8.2 -27.5,-20.4 -4.5,-3.7 -11.3,-8.9 -15,-11.5 -3.6,-2.7 -9.1,-6.7 -12.1,-9.1 l -5.5,-4.3 -150.8,0.2 c -83,0.1 -167.1,0.1 -187,-0.1 -19.9,-0.1 -51.2,-0.3 -69.7,-0.4 -31.7,-0.3 -33.8,-0.2 -35.4,1.6 z m 435.1,16.7 c 2.2,1 5.9,3.5 8.1,5.5 2.2,2.1 5.4,4.5 7,5.3 1.7,0.9 5.3,3.5 8,5.8 2.8,2.3 6.8,5.1 9,6.3 2.2,1.1 5.4,3.4 7,5.2 1.7,1.7 4.6,4.1 6.5,5.3 1.9,1.1 5.8,4 8.5,6.3 4.9,4.1 10.3,8.1 17.7,12.9 2,1.3 7.2,5.3 11.5,8.8 4.3,3.5 10.6,8.2 14,10.5 4.4,3 6.4,5.1 7.1,7.4 0.7,2.1 1,28.2 0.9,73.4 -0.2,67.5 -0.3,70.3 -2.1,72.3 -1.1,1.2 -2.3,2.1 -2.9,2.1 -1.2,0 -16,10.5 -17.8,12.6 -0.8,1 -2.7,2.5 -4.3,3.5 -1.7,1 -5.3,3.7 -8,5.9 -2.8,2.3 -10.5,8.1 -17.1,13 -6.6,4.9 -18.5,13.9 -26.5,20 -7.9,6 -15,11 -15.6,11 -0.7,0 -3.4,1.9 -6,4.3 -2.7,2.4 -5.6,4.6 -6.5,5 -1,0.3 -29.5,0.6 -63.5,0.7 -34.1,0 -78.5,0.4 -98.7,0.7 -33.1,0.5 -37.1,0.8 -39,2.4 -2.1,1.7 -2.2,2.4 -2.4,28.1 -0.1,14.4 -0.2,34.8 -0.3,45.2 -0.3,25.5 -1.5,24 19.5,24.3 18.3,0.3 18.9,0.5 20.4,8.8 1,5.9 0.7,83.2 -0.4,85.8 -0.4,0.9 -1.9,2.1 -3.4,2.5 -1.4,0.4 -56,0.7 -121.3,0.7 -117.4,0 -118.8,0 -120.7,-2 -2,-1.9 -2,-3.5 -2.2,-47 l -0.1,-44.9 2.2,-1.8 c 2.4,-2 8.5,-2.4 24.6,-1.9 8.3,0.3 9.3,0.1 11.8,-2 l 2.7,-2.4 0,-140 c 0,-77 0,-144 -0.1,-148.8 0,-8.5 -0.1,-9 -3,-11.9 -3.1,-3 -3.1,-3 -12.8,-2.7 -16.5,0.5 -21,0.1 -23.2,-2.1 -1.9,-1.9 -2,-3.3 -2,-46.4 0,-42.2 0.1,-44.5 1.9,-46.7 l 1.9,-2.4 57.4,-0.5 c 31.5,-0.3 122.7,-0.4 202.7,-0.2 139,0.2 145.5,0.3 149.5,2.1 z m -889,16.9 c -5.1,0.8 -6.7,1.6 -12.1,6 -6.7,5.5 -20.7,16.3 -26.8,20.7 -2.3,1.6 -5.9,4.5 -8.1,6.2 -6.7,5.6 -25.5,19.3 -26.4,19.3 -0.5,0 -3.1,1.9 -5.8,4.2 -2.7,2.4 -6.6,5.6 -8.6,7.1 -7.6,5.8 -6.9,-10.5 -7.1,168.5 -0.2,137.8 0,161.2 1.2,164.4 0.9,2.4 3.2,4.9 6.6,7.2 8.2,5.8 36.4,27.1 66,49.9 3.4,2.6 8.9,6.7 12.2,9 l 6,4.1 134.4,-0.2 134.4,-0.1 5.6,-3.7 c 3.1,-2.1 8.1,-5.8 11.2,-8.3 22.6,-18.3 28.8,-23.1 48.1,-36.8 4,-2.9 9.4,-6.7 11.9,-8.5 2.5,-1.8 5.4,-4.1 6.5,-5.1 1,-1 3.3,-2.8 4.9,-4.1 l 3,-2.4 0.5,-160.9 c 0.3,-93.3 0.1,-162.4 -0.4,-164.6 -0.7,-3.1 -2.3,-5.1 -7.5,-9.4 -3.6,-3 -8.8,-6.8 -11.6,-8.4 -6.5,-3.9 -12.4,-8.2 -27.1,-19.8 -17,-13.4 -27.5,-21.4 -30.5,-23.3 -1.4,-0.9 -4.5,-3.4 -6.9,-5.7 -2.4,-2.2 -5.8,-4.3 -7.4,-4.6 -3.2,-0.6 -262.7,-1.2 -266.2,-0.7 z m 202.2,61.1 c 2.3,1.2 5.2,3.3 6.5,4.7 1.3,1.5 4,3.6 5.9,4.9 1.9,1.2 4.9,3.4 6.5,4.8 1.7,1.4 5.1,4.1 7.6,5.9 11,7.9 12.8,9.4 13.7,11.8 0.6,1.5 0.9,56.9 0.8,141.7 l -0.1,139.2 -3.5,3.6 c -1.9,2 -5.5,4.8 -8,6.1 -2.5,1.3 -9,5.8 -14.5,9.9 -5.5,4.2 -11.7,8.7 -13.7,10.1 l -3.8,2.6 -67.7,-0.1 -67.7,-0.1 -5.1,-2.5 c -2.7,-1.3 -7.6,-4.6 -10.9,-7.2 -3.2,-2.7 -9.5,-7.2 -13.9,-10 -9.8,-6.4 -13.5,-9.6 -14.7,-12.8 -1.3,-3.5 -1.5,-276.3 -0.1,-279.7 1,-2.7 7.8,-9.7 9.4,-9.8 0.5,0 4.2,-2.7 8.3,-6 4.1,-3.4 8.7,-6.8 10.2,-7.8 1.5,-0.9 5.4,-3.7 8.6,-6.2 l 5.9,-4.5 63.1,-0.6 c 34.7,-0.3 65.4,-0.4 68.1,-0.3 2.8,0.1 6.9,1.2 9.1,2.3 z m -228,-94.5 c -4.6,2.8 -25.4,18.4 -26.1,19.7 -0.4,0.6 -3.3,2.7 -6.4,4.7 -3.1,1.9 -8.8,6.1 -12.7,9.1 -3.9,3.1 -9.1,7.1 -11.5,8.8 -2.4,1.8 -7.2,5.4 -10.5,8 -3.4,2.7 -9,6.8 -12.3,9.3 -3.4,2.5 -9.6,7.2 -13.7,10.5 -4.2,3.3 -9.5,7.3 -11.8,9 -4.9,3.5 -7.8,6.3 -10.2,10 -1.6,2.5 -1.7,13.7 -1.9,174.3 -0.1,94.4 -0.6,172.9 -1,174.5 -1.3,4.9 1,8 12.8,16.8 6.2,4.6 13,10 15.2,12 2.2,2 5.9,4.6 8.2,5.7 2.3,1.2 6.7,4.4 9.9,7.2 3.1,2.7 6.1,5 6.5,5 0.5,0 3.2,1.9 6.1,4.3 2.9,2.3 7.3,5.5 9.8,7.1 6.7,4.3 27,20.2 38.1,29.7 3,2.6 7.4,5.7 9.9,7 l 4.5,2.4 154.1,0 154.1,0 4.1,-3 c 2.3,-1.7 5.6,-4 7.4,-5.2 1.8,-1.2 4.2,-3 5.3,-4 8.2,-7.4 33.6,-26.8 39,-29.6 1.7,-0.8 5,-3.4 7.3,-5.6 2.4,-2.3 4.7,-4.1 5.2,-4.1 0.4,0 4.5,-3 9.1,-6.8 4.6,-3.7 11,-8.4 14.1,-10.5 3.1,-2.1 6,-4.2 6.3,-4.7 0.4,-0.6 3.9,-3.2 7.9,-5.9 3.9,-2.7 8.4,-6.7 10,-8.9 l 2.8,-4.1 0,-176.5 c 0.1,-198.1 0.9,-178.7 -7.5,-184.6 -2.3,-1.7 -6.2,-4.6 -8.7,-6.6 -2.5,-1.9 -6.5,-4.8 -9,-6.5 -4.5,-2.9 -7.4,-5.1 -20.5,-15.4 -10.6,-8.2 -16.3,-12.4 -23.7,-17.2 -3.7,-2.4 -7.3,-5.2 -8,-6.1 -0.7,-1 -6.5,-5.6 -12.8,-10.2 -6.3,-4.6 -11.9,-8.8 -12.5,-9.2 -0.5,-0.5 -3.2,-2.3 -6,-4.1 -2.7,-1.8 -6.3,-4.3 -8,-5.5 l -3,-2.2 -153.4,-0.2 c -148.7,-0.3 -153.5,-0.2 -156.5,1.6 z m 300,15.1 c 3,0.9 8.3,4.1 13.9,8.4 9.4,7.3 27.6,20.7 37.4,27.6 3.2,2.2 7.7,5.7 10.2,7.7 11.7,9.9 16.1,13.4 24.2,19.1 15.7,11 16.5,11.7 19.1,14.8 2.8,3.3 5.1,10.2 4.1,12.7 -0.3,0.9 -0.6,75.2 -0.5,165.1 0,154.2 -0.1,163.8 -1.7,167.1 -1.7,3.3 -14.4,13.6 -29.8,24.2 -3.3,2.2 -8.7,6.4 -11.9,9.2 -3.3,2.8 -7.4,6 -9.2,7.1 -1.7,1.1 -7.6,5.5 -13,9.8 -13.2,10.4 -35.5,27.1 -38.5,28.8 -2,1.2 -26.8,1.4 -146.7,1.7 -129.7,0.2 -144.7,0.1 -147.6,-1.3 -1.9,-0.9 -6.5,-4.2 -10.2,-7.4 -3.8,-3.1 -8.9,-6.9 -11.4,-8.3 -2.5,-1.4 -6.7,-4.6 -9.4,-6.9 -2.7,-2.4 -8.2,-6.7 -12.2,-9.4 -9.8,-6.8 -19.2,-13.8 -28.6,-21.3 -4.4,-3.5 -11.2,-8.6 -15.1,-11.4 -10.2,-7.3 -14.3,-11.4 -16.6,-16.7 -1.9,-4.5 -1.9,-7.1 -1.8,-172.4 l 0.2,-167.9 5.5,-4.9 c 3,-2.7 7.9,-6.4 10.9,-8.1 3,-1.8 7.6,-5.3 10.3,-8 2.6,-2.6 6.2,-5.5 8,-6.4 1.8,-0.9 5.4,-3.4 8,-5.5 2.6,-2.2 5.1,-3.9 5.6,-3.9 0.6,0 2.5,-1.4 4.3,-3.2 1.9,-1.8 7.2,-6 11.9,-9.5 4.7,-3.4 9.9,-7.3 11.5,-8.6 1.7,-1.3 6.2,-4.3 10,-6.7 3.9,-2.4 8.8,-6 11,-7.9 2.2,-2 5.1,-4.6 6.4,-5.6 2.3,-2 5,-2 144,-2.5 77.9,-0.3 141.9,-0.6 142.2,-0.8 0.3,-0.1 2.8,0.5 5.5,1.3 z m -1031.9,18.3 c -4.3,0.9 -4.6,3.8 -4.7,46.6 -0.1,30.2 0.1,41.1 1,42.1 2.4,2.8 7.9,3.2 42.7,2.7 33.5,-0.5 35.3,-0.6 37,-2.4 1.6,-1.8 1.8,-3.6 1.5,-13.8 -0.5,-17.2 -2.8,-16 30.6,-16 14.7,-0.1 40.3,-0.2 57,-0.4 27.9,-0.3 30.4,-0.2 32.5,1.4 l 2.2,1.8 -0.3,168.4 c -0.2,92.5 -0.3,169.1 -0.2,170.1 0,1 -1.1,2.9 -2.5,4.3 l -2.5,2.5 -17.2,-0.7 c -16.5,-0.6 -17.4,-0.6 -19.8,1.4 l -2.5,2 0,26.1 c 0,25.8 0,26.1 2.3,28.3 l 2.3,2.3 97.7,0 c 97,0.1 97.7,0.1 99.7,-2 1.9,-1.9 2,-3.2 1.9,-28 -0.1,-14.3 -0.2,-26.6 -0.3,-27.2 -0.1,-0.7 -1.3,-1.9 -2.8,-2.7 -2.2,-1.1 -5.9,-1.2 -17.8,-0.7 -8.2,0.4 -16.5,0.3 -18.3,-0.2 -5.9,-1.5 -5.9,-1.6 -5.3,-57.2 0.3,-27.5 0.4,-102.4 0.1,-166.5 -0.3,-65.2 -0.1,-117.7 0.4,-119.3 0.5,-1.6 1.8,-3.2 3,-3.6 1.1,-0.4 27.7,-0.6 59,-0.5 52.1,0.3 57,0.4 58.7,2 1.7,1.5 1.9,3.2 1.9,13 0,11.6 1,16 3.9,16.9 0.9,0.2 17.6,0.6 37.1,0.7 36,0.2 39.8,-0.1 40.1,-3.5 0.6,-5.5 -0.3,-86.3 -1,-87 -0.7,-0.7 -513.5,-1.6 -517.4,-0.9 z m -49.9,-33.6 c -1,1 -1.8,2.6 -1.8,3.5 0,1 -0.2,35.5 -0.4,76.7 -0.5,76.2 -0.4,77.9 3.2,80 1.5,0.9 74.3,0.9 137.7,0 40.3,-0.5 37,1.1 35.9,-17 -0.7,-12.1 -0.6,-12.2 1.7,-13.8 1.7,-1 5.3,-1.6 11.6,-1.8 8.5,-0.2 9.4,0 11.7,2.1 2.5,2.3 2.5,2.4 2,16.5 -0.2,7.7 -0.6,68.3 -0.8,134.5 l -0.3,120.5 -2.8,2.3 c -2.5,2.2 -3.3,2.3 -8.4,1.6 -7.6,-1.1 -25,-0.4 -28.1,1 -3.8,1.8 -4.9,5.3 -4,12.3 0.4,3.4 0.6,29.9 0.5,58.9 -0.4,58.6 -0.6,56.3 6.2,58.6 2.4,0.8 7.5,0.9 16.2,0.5 17.2,-0.9 248.1,-1 260.6,-0.1 9.3,0.7 10.2,0.6 12.7,-1.5 l 2.8,-2.1 0,-61.5 c -0.1,-33.8 -0.3,-62.1 -0.7,-62.9 -0.3,-0.9 -1.8,-2.2 -3.4,-3 -2.3,-1.2 -5.3,-1.3 -17.6,-0.6 -15.3,0.9 -18.5,0.5 -20.1,-2.6 -0.6,-1.1 -1.1,-53.7 -1.3,-136.6 -0.4,-132.6 -0.4,-134.9 1.5,-136.3 1.4,-1 4.8,-1.4 11.3,-1.4 8.7,0 9.6,0.2 11.9,2.5 2.4,2.5 2.5,2.8 1.8,11.8 -0.7,10.5 0.8,16.1 4.8,17.5 1.3,0.5 38.9,1 83.5,1.1 88.1,0.2 85.5,0.3 88,-5.2 0.8,-1.7 0.9,-13.5 0.3,-40.8 -0.4,-21.1 -0.6,-38.7 -0.4,-39.1 0.2,-0.3 0.5,-16.9 0.5,-36.8 0.2,-35.1 0.1,-36.2 -1.9,-38.2 l -2,-2.1 -305.4,-0.1 c -289.5,-0.1 -305.4,0 -307,1.6 z m 558.8,14.8 c 28.2,0 30.3,0.1 32.5,1.9 l 2.4,1.9 0,58.4 c 0,32 -0.3,59.7 -0.8,61.5 -0.5,2.2 -1.6,3.4 -3.7,4.2 -2,0.6 -24.4,1.1 -63.1,1.2 -71.7,0.1 -64.2,1.9 -64.7,-15.6 -0.3,-9.4 -0.7,-11.7 -2.2,-13 -1.6,-1.5 -5.3,-1.6 -31.5,-1.5 -21,0 -30.2,0.4 -31.5,1.3 -3.4,2.1 -4,5.7 -3.8,22.2 0.2,8.8 0.2,75.3 0,147.9 -0.2,122.6 -0.1,132 1.4,133.7 1.5,1.7 3.4,1.9 17.9,1.9 18.3,0 20,0.6 21.3,7 0.4,1.9 0.5,22.3 0.2,45.2 -0.5,38.3 -0.6,41.9 -2.3,43.5 -1.7,1.7 -8.1,1.8 -123.5,1.9 -77.9,0 -122.4,-0.3 -123.7,-0.9 -1.1,-0.6 -2.3,-1.5 -2.7,-2.1 -0.4,-0.6 -0.8,-21.2 -0.8,-45.9 0.1,-43.2 0.1,-44.8 2,-46.7 1.8,-1.8 3.4,-2 18.9,-2 l 17,0 2.1,-2.8 2.2,-2.7 -0.4,-148.3 -0.4,-148.3 -2.3,-2.2 c -2.5,-2.6 -4.6,-2.7 -39.4,-2.8 -19.5,-0.1 -22,0.1 -23.7,1.6 -3.1,2.8 -4.1,8 -2.9,15.9 0.8,6.3 0.8,7.3 -0.9,9.6 l -1.9,2.5 -62.9,0.1 -62.9,0 -2.3,-2.3 -2.4,-2.4 0.4,-59.5 0.3,-59.6 2.8,-2.4 2.8,-2.4 75.1,0 c 41.3,0 75.3,-0.1 75.4,-0.3 0.1,-0.1 79.4,-0.1 176.1,0 96.7,0.2 189.4,0.3 205.9,0.3 z M 886,1395.8 c -2.9,1.3 -7.6,4.6 -12.1,8.7 -4.7,4 -8,6.5 -18.8,14 -3.2,2.2 -7.6,5.6 -9.8,7.5 -4.1,3.6 -11.6,9.3 -25.3,19 -6.6,4.7 -21.7,16.5 -24.4,19 -0.4,0.5 -0.8,28.4 -0.7,62.1 0.2,65.8 0.1,64.7 5.4,68.4 1.2,0.8 4.3,3 6.9,4.8 2.6,1.7 8,5.8 12,8.9 14.7,11.4 17.4,13.5 23.6,17.8 15.4,10.9 23.6,17 31.4,23.2 4.6,3.8 9.7,7.4 11.3,8.2 2.5,1.2 12.6,1.5 57.5,1.7 30,0.2 75.3,0.2 100.6,0 50,-0.3 48,-0.5 54.4,5.4 1.9,1.7 9.2,7.3 16.1,12.3 6.9,5.1 14.3,11 16.5,13.3 l 3.9,4 0.1,36.2 c 0,26.5 -0.3,36.9 -1.2,38.7 -1.6,3.2 -5,6.3 -9.4,8.5 -1.9,1 -6.9,4.3 -11,7.3 -8.8,6.6 -20.7,14.5 -23.4,15.5 -2.5,1 -132.3,1.1 -136,0.1 -3,-0.7 -11.1,-5.7 -12.2,-7.5 -0.3,-0.5 -2.4,-2.1 -4.7,-3.6 -2.3,-1.4 -6.4,-4.3 -9.2,-6.5 -2.7,-2.1 -7.4,-5.6 -10.2,-7.8 -7.8,-5.9 -8.5,-7.9 -8.4,-22.9 0.1,-9.6 -0.2,-13.2 -1.3,-14.6 -1.4,-1.9 -3.1,-2 -55.3,-2.3 -52.8,-0.3 -54,-0.2 -55.7,1.7 -1.6,1.8 -1.8,4.4 -1.9,27.3 0,14 0.4,26.1 0.9,27 1.2,2.1 16.1,14.1 20.2,16.2 1.8,0.9 5.2,3.4 7.4,5.4 2.3,2 6,5 8.3,6.7 9.7,6.8 25.2,18.7 28.2,21.5 1.8,1.7 6,4.8 9.2,6.9 3.3,2.1 8.2,5.7 10.8,7.9 4.1,3.4 5.8,4.1 11.8,5 4.5,0.6 52.5,0.9 135.5,0.7 146,-0.3 129.9,0.8 142.3,-9.4 3.8,-3.1 8.3,-6.5 10.1,-7.6 1.8,-1.1 5.5,-3.8 8.2,-6.1 2.7,-2.2 9.4,-7.3 14.9,-11.4 9.3,-6.8 24.1,-18 38.8,-29.3 3.4,-2.7 6.6,-5.5 7,-6.3 1.4,-2.5 0.8,-119 -0.5,-122 -0.7,-1.4 -5.7,-5.9 -11.3,-9.9 -5.5,-4 -10.9,-8.3 -12,-9.5 -1,-1.1 -3.5,-2.8 -5.4,-3.7 -2,-0.9 -5,-2.9 -6.6,-4.4 -3,-2.8 -9.9,-7.8 -23,-16.6 -3.8,-2.6 -8.8,-6.4 -11,-8.4 -2.2,-2 -6,-4.9 -8.5,-6.4 -2.5,-1.5 -6.2,-4.4 -8.3,-6.4 l -3.8,-3.6 -103.2,-0.5 -103.2,-0.5 -5.9,-4.8 c -3.2,-2.6 -7.8,-5.9 -10.2,-7.3 -2.4,-1.4 -4.4,-2.9 -4.4,-3.2 0,-0.4 -1.7,-1.8 -3.8,-3.2 -5.4,-3.6 -16.9,-12.8 -17.9,-14.2 -0.4,-0.7 -0.9,-17.7 -1,-37.7 -0.1,-28.7 0.1,-37.2 1.2,-39.7 0.7,-1.8 3.6,-4.9 6.4,-7.1 8.3,-6.3 18.2,-13.6 22.5,-16.7 2.3,-1.6 6,-4.6 8.3,-6.7 2.3,-2.1 5.6,-4 7.5,-4.4 1.8,-0.3 33.2,-0.5 69.8,-0.3 l 66.5,0.3 7,4.9 c 3.9,2.7 8.8,6.6 11,8.6 2.2,2 5.4,4.5 7,5.5 1.7,1 6.2,4.2 10.2,7.2 8.6,6.6 8.7,6.9 8.8,25.1 0,12.8 0.1,13.4 2.4,15.3 2.2,1.8 4.6,1.9 43,2.1 70.2,0.5 66,0.6 67.9,-1.8 1.5,-1.8 1.7,-5.1 1.6,-27.5 -0.1,-23.9 -0.3,-25.7 -2.3,-29.6 -1.1,-2.3 -3.1,-4.9 -4.3,-5.8 -9.4,-6.5 -25,-17.7 -29.4,-21 -2.9,-2.2 -9.8,-7.4 -15.4,-11.5 -5.5,-4.1 -14.7,-11.1 -20.3,-15.5 -5.6,-4.4 -12.4,-9.6 -15.2,-11.5 l -5,-3.5 -135,-0.2 c -74.2,-0.1 -135.7,0.1 -136.5,0.5 z m -23.4,-32.6 c -2.8,2.1 -6.2,4.6 -7.6,5.6 -6.7,5.1 -24.4,18.1 -29.5,21.7 -3.1,2.2 -9.4,6.9 -14,10.5 -4.5,3.6 -10.9,8.6 -14.2,11.1 -3.3,2.6 -8,5.7 -10.4,6.9 -2.4,1.2 -6.6,4.4 -9.4,6.9 -5.8,5.5 -14,11.5 -20.7,15.4 -2.6,1.5 -5.8,4.2 -7.2,6 l -2.4,3.2 0,76.5 c -0.1,84.7 -0.6,78.7 6.6,83.5 5.8,4 17.5,12.6 23.4,17.1 2.9,2.2 8.9,6.5 13.3,9.5 7.8,5.2 27.6,19.7 32.5,23.9 1.4,1.1 4,3 5.8,4 1.8,1.1 7.4,5.3 12.5,9.3 5,4 13.5,9.9 18.7,13 l 9.6,5.6 97.9,0.6 c 68,0.4 99.3,0.9 102.3,1.7 3,0.7 6.3,3 11,7.3 l 6.7,6.3 0.1,19.3 c 0.1,10.7 -0.3,21 -0.7,23 -0.6,2.3 -2.5,5.1 -5.3,7.7 -8.8,8.1 -5.3,7.7 -58.6,7.9 -34.4,0.2 -48.3,-0.1 -50.5,-0.9 -6,-2.4 -15.4,-10 -16.5,-13.4 -0.7,-2.1 -0.9,-9.7 -0.7,-20.6 0.6,-21.4 -0.1,-26.3 -3.8,-29.6 -2.4,-2 -3.5,-2.3 -6.8,-1.8 -6.4,1.1 -102.7,0.5 -143.7,-0.9 -26.7,-0.8 -48.9,-0.6 -50.9,0.4 -1.1,0.6 -2.4,2.6 -2.9,4.4 -0.5,1.8 -0.6,16.1 -0.3,32.2 0.8,37 0.7,47.8 -0.2,59.2 -0.7,9 -0.6,9.3 2,12.3 1.4,1.8 6,5.5 10.2,8.2 4.2,2.8 8.9,6.1 10.6,7.5 1.6,1.3 7.5,5.6 13,9.6 5.5,3.9 14.3,10.5 19.5,14.7 5.2,4.1 10.8,8.3 12.5,9.4 1.6,1 3.2,2.2 3.5,2.6 0.3,0.4 3.2,2.4 6.5,4.5 3.3,2.1 8.9,6.4 12.5,9.5 3.6,3.1 8.2,6.7 10.3,7.9 2.1,1.3 7,4.9 10.9,8.1 l 7.1,5.8 12.1,0.6 c 6.7,0.3 76,0.4 154.1,0.3 139.8,-0.2 142.1,-0.2 146,-2.2 2.3,-1.1 6.1,-3.6 8.5,-5.6 2.5,-2 8.3,-6.4 13,-9.8 8.3,-6 12.5,-9.2 22.4,-16.8 2.6,-2.1 6.7,-5.2 9.1,-6.8 2.3,-1.7 7.8,-5.7 12,-9 9.5,-7.3 13.2,-10.1 18.8,-14 2.3,-1.6 6.4,-4.8 9,-7 2.7,-2.2 8.5,-6.5 13,-9.5 13.5,-9.2 12.4,-1 12.2,-87.1 -0.1,-69.7 -0.2,-73.5 -1.9,-76.2 -1.1,-1.5 -3.2,-3.5 -4.8,-4.3 -1.5,-0.8 -5.7,-4.1 -9.3,-7.3 -3.5,-3.2 -8.8,-7.1 -11.7,-8.6 -6.2,-3.2 -13.1,-8 -20.8,-14.5 -3,-2.6 -6.8,-5.5 -8.5,-6.5 -1.6,-1.1 -5.2,-3.7 -8,-6 -2.7,-2.3 -8.1,-6.2 -12,-8.8 -8.8,-5.8 -15.2,-10.5 -20.7,-15 -11.9,-9.7 -17.9,-13.3 -26.7,-15.8 -5.3,-1.5 -7.2,-1.7 -10.5,-0.8 -2.7,0.7 -13.8,0.8 -34.5,0.4 -16.8,-0.4 -58.3,-0.8 -92.1,-1 -33.8,-0.1 -62.4,-0.6 -63.5,-1.1 -2.2,-0.9 -12.4,-8.8 -14.1,-11 -1.7,-2.1 -1.1,-48.8 0.6,-50.9 2.1,-2.5 12.9,-10.5 15.7,-11.6 3.6,-1.3 95.9,-1.2 98.5,0.2 3,1.6 13.2,9.5 14.9,11.5 1.1,1.4 1.3,6.3 1.1,26.8 -0.2,20.8 0,25.4 1.2,27.1 1.3,1.8 2.7,2 12.3,2.2 5.9,0.1 14,0.1 17.8,0.1 18.7,-0.3 64,0.1 89.5,0.6 57.5,1.3 80.2,1.4 83.2,0.4 1.7,-0.6 3.4,-2.2 3.9,-3.6 0.6,-1.6 0.7,-21.3 0.4,-52.6 -0.6,-44.3 -0.8,-50.5 -2.3,-53.3 -1.6,-3 -7.2,-7.4 -33.2,-26 -3.6,-2.6 -9.7,-7.4 -13.7,-10.7 -4,-3.4 -11.1,-8.8 -15.8,-12.1 -4.7,-3.3 -12.2,-8.8 -16.8,-12.3 -4.5,-3.4 -10.9,-8.3 -14.2,-10.7 -3.3,-2.5 -8.7,-6.6 -12,-9.1 -3.3,-2.5 -7.7,-5.4 -9.8,-6.5 -3.6,-1.9 -7.6,-1.9 -156.8,-2.2 l -153.1,-0.2 z m 303.6,13.9 c 2,0.5 4.3,1.5 5,2.3 1.4,1.3 25.7,19.4 33.7,25 2.5,1.7 6.6,5 9.3,7.3 2.6,2.3 7.2,5.8 10,7.7 2.9,1.9 8.7,6.2 12.8,9.5 4.1,3.3 12,9.3 17.5,13.2 11.6,8.4 16.2,12.4 18,15.9 1,2 1.2,10.4 0.7,41.8 l -0.5,39.4 -2.3,1.5 c -2.8,1.8 -18.8,2.2 -101.4,2.7 -58.4,0.3 -59.3,0.2 -60.5,-4.7 -0.3,-1.2 -0.7,-11 -0.8,-21.9 -0.3,-16.4 -0.6,-20 -2,-22.2 -1,-1.4 -2.1,-2.6 -2.5,-2.6 -0.5,0 -3.6,-2.4 -6.9,-5.3 -3.4,-2.8 -9.1,-6.7 -12.7,-8.6 l -6.6,-3.4 -56.3,0 c -63.9,0 -57.6,-0.8 -69.8,9.4 -4.1,3.4 -8.4,6.6 -9.6,7.2 -1.3,0.5 -3.2,3 -4.4,5.4 -2.1,4.3 -2.1,5.1 -1.4,32.1 0.8,32.4 0.5,31.5 12.1,38.7 1.8,1.1 4.3,3.3 5.5,4.9 1.2,1.6 4.8,4 7.8,5.4 l 5.6,2.4 49,0 c 27,-0.1 71.8,-0.2 99.8,-0.2 l 50.7,-0.2 8.3,5.7 c 4.5,3.1 13,9.3 18.8,13.8 5.9,4.5 14.2,10.9 18.5,14.2 4.4,3.3 12.3,9.4 17.6,13.5 5.3,4.1 11.6,8.8 14,10.3 2.4,1.5 7.2,5.3 10.8,8.3 3.6,3 8.8,7.3 11.5,9.6 8.6,7 8,1 7.9,76.2 l 0,67 -3.3,2.5 c -1.8,1.4 -7.6,6.2 -12.9,10.6 -5.3,4.4 -14.1,11.2 -19.7,15.2 -12.4,8.9 -17.8,12.9 -22.3,16.8 -1.9,1.6 -5.6,4.6 -8.3,6.5 -6.3,4.6 -25.6,19.2 -29.3,22.2 -1.6,1.3 -5,3.5 -7.5,5 l -4.6,2.7 -143,0.1 -143,0 -5,-2.5 c -2.8,-1.3 -7.5,-4.5 -10.5,-7 -3,-2.5 -9.8,-7.4 -15,-10.9 -5.2,-3.5 -10.4,-7.4 -11.5,-8.6 -1.1,-1.2 -4.2,-3.7 -7,-5.6 -5.3,-3.5 -14,-10.2 -21.5,-16.4 -2.5,-2 -7,-5.3 -10,-7.3 -3.1,-1.9 -6.2,-4.3 -7,-5.2 -0.8,-0.9 -3.4,-3 -5.9,-4.7 -6,-4 -12.9,-10.6 -14.7,-14 -1,-2 -1.4,-7.4 -1.4,-22 -0.2,-55.5 -0.2,-55.6 2,-57.8 1.1,-1.1 3.2,-2 4.8,-2 1.5,0.1 16.6,-0.2 33.5,-0.4 17,-0.3 50.4,-0.6 74.3,-0.6 39.2,-0.1 43.7,0.1 46.3,1.6 1.6,1 3.3,2.7 3.9,3.8 0.5,1.2 0.7,9.5 0.4,18.7 -0.4,15 -0.3,17 1.5,21.1 1.5,3.3 3.2,5.2 6.9,7.3 2.7,1.5 7,4.6 9.6,6.7 9.5,7.9 8.5,7.8 70,7.5 l 54.5,-0.3 4.9,-2.9 c 5.9,-3.5 16.7,-11.4 21.2,-15.5 3.9,-3.7 3.6,1.4 3.3,-52.4 l -0.1,-9 -5.2,-5 c -7,-6.7 -18.2,-14.6 -23.1,-16.3 -3.3,-1.1 -21.5,-1.4 -101.6,-1.3 -75.8,0.1 -98.4,-0.1 -101.1,-1.1 -4,-1.5 -19.5,-13 -68.4,-51.2 -3.4,-2.6 -10.2,-7.9 -15.3,-11.8 -10.5,-7.9 -17.7,-14.9 -19.7,-18.8 -2.3,-4.5 -2.6,-11.2 -2.6,-67.1 l 0,-62 c -0.1,-4.2 0.2,-8.3 0.5,-9.2 0.7,-1.7 11.9,-11.1 17.1,-14.3 1.8,-1.1 5.9,-4.3 9.2,-7 3.2,-2.8 9,-7.4 12.8,-10.2 3.8,-2.9 11.6,-8.9 17.4,-13.2 5.8,-4.4 13.4,-10.3 17,-13 3.6,-2.8 9.3,-7 12.7,-9.3 3.4,-2.4 9.2,-6.6 13,-9.3 l 6.8,-5 67.5,-0.5 c 97.3,-0.7 217.7,-0.2 222.2,1.1 z m 580.3,-495.9 c -1.4,1.3 -2.6,3.2 -2.6,4.3 l 0,20.8 0.1,18.8 2.5,2.3 c 3.2,3 8.5,4 16.9,3.1 11.3,-1.2 16.4,2.4 19.9,14 0.9,2.7 3.4,9.5 5.7,15 2.3,5.5 5.2,13.1 6.5,17 1.2,3.8 3.4,9.5 4.8,12.5 3.2,7 10.3,24.7 11.2,28 0.9,3.2 8.9,22.8 12,29.4 1.3,2.8 2.9,7.3 3.6,10.1 0.7,2.7 2.4,7.5 3.9,10.5 1.5,3 3.5,8 4.5,11 1,3 2.5,6.8 3.3,8.5 1.6,3.2 10.6,25.9 15.2,38.5 1.5,4.1 3.7,9.5 4.8,12 1.2,2.5 4.5,10.8 7.3,18.5 2.8,7.7 6,15.6 6.9,17.5 1,1.9 2.7,6.6 3.9,10.5 1.1,3.8 3.1,8.6 4.5,10.6 1.3,1.9 3,5.5 3.6,7.9 0.7,2.5 2.5,7.1 4.1,10.2 3.1,6.2 3.1,10.1 0.1,11.3 -1,0.4 -7,0.6 -13.5,0.5 -11.3,-0.1 -15.1,0.7 -16.9,3.4 -0.4,0.6 -0.8,10.6 -0.8,22.2 0,18.9 0.2,21.4 1.8,23.4 l 1.8,2.2 107.5,0.2 107.4,0.2 2.2,-2.2 c 2.1,-2.1 2.1,-2.6 1.7,-24 -0.4,-17.6 -0.8,-22.2 -2,-23.4 -1.2,-1.2 -4.5,-1.5 -15.9,-1.5 -12.6,-0.1 -14.7,-0.3 -16.4,-2 -1.2,-1 -2.1,-2.4 -2.1,-3.1 0,-1.2 4.6,-13.2 8.3,-21.6 0.8,-1.8 2,-5.3 2.7,-7.8 0.7,-2.5 2.3,-6.5 3.5,-9 1.3,-2.5 3.4,-7.9 4.8,-12 2.8,-8.1 7.5,-19.8 10.1,-24.9 0.9,-1.7 2.6,-6.1 3.7,-9.7 1.9,-6 3.3,-9.3 11.2,-26.5 3.1,-6.6 7.7,-20.1 7.7,-22.5 0,-0.9 1.3,-4.3 3,-7.5 1.6,-3.3 4.6,-10.5 6.5,-16.2 1.9,-5.6 5.7,-14.7 8.5,-20.2 2.7,-5.5 5.9,-13.4 7.1,-17.5 1.3,-4.1 4,-11.8 6.2,-17 2.1,-5.2 4.8,-12.4 5.9,-16 1.1,-3.6 3.1,-8.4 4.4,-10.7 1.3,-2.3 4.1,-9.2 6.3,-15.5 2.1,-6.2 5.1,-14.2 6.5,-17.8 7,-17.1 6,-16.5 26.8,-16.5 12.7,0 16,-0.3 17.2,-1.5 1.3,-1.2 1.6,-5.6 1.9,-23.5 0.3,-21.7 0.3,-22 -1.9,-24.2 l -2.3,-2.3 -75.5,0 -75.5,0 -2.1,2.7 c -2.1,2.7 -2.1,3.5 -1.8,23.6 0.4,25.5 -0.1,24.7 13.9,24.7 7.6,0 9.2,0.3 10.9,2 2.7,2.7 2.5,5 -1,13 -1.6,3.7 -3.6,9.2 -4.4,12.3 -0.8,3.1 -2.8,8.4 -4.5,11.9 -3.9,8.1 -7.7,17.6 -10.3,25.8 -1.1,3.6 -4.4,12 -7.4,18.7 -3,6.8 -5.4,12.7 -5.4,13.3 0,0.5 -1.1,3.3 -2.4,6.2 -2.7,5.9 -9,21.9 -10.1,25.8 -0.4,1.4 -1.6,4.5 -2.8,7 -1.1,2.5 -4.1,10.3 -6.7,17.5 -6.5,17.9 -14.7,38.5 -16.4,41.5 -0.7,1.4 -2.2,5.4 -3.2,9 -0.9,3.6 -2.3,7.4 -3,8.5 -1.3,2.2 -6.9,16.9 -10.4,27.8 -2.4,7.3 -4.1,9.7 -7,9.7 -2.7,0 -4.8,-2.5 -6,-7.3 -0.6,-2.3 -3.3,-9.8 -6.1,-16.7 -2.8,-6.9 -6.1,-15.2 -7.3,-18.5 -1.3,-3.3 -3.2,-8 -4.3,-10.5 -1.1,-2.5 -2.5,-6.7 -3.2,-9.4 -0.7,-2.7 -1.9,-6.2 -2.7,-7.7 -0.8,-1.6 -3.4,-8.4 -5.8,-15.1 -2.4,-6.8 -5.3,-14.3 -6.5,-16.8 -2,-4.3 -8.6,-21.8 -13.5,-36 -1.3,-3.6 -3.2,-8.3 -4.3,-10.5 -3.5,-6.8 -9.2,-21.8 -18.5,-48.4 -1.6,-4.7 -3.8,-10.1 -4.7,-12 -1,-2 -2.4,-5.4 -3.1,-7.6 -0.7,-2.2 -3.7,-9 -6.6,-15.1 -3,-6.1 -5.4,-11.8 -5.4,-12.7 0,-0.8 1.2,-2.5 2.6,-3.6 2.3,-1.8 4.1,-2.1 11.9,-2.1 7.8,0 9.6,-0.3 11.9,-2.1 l 2.6,-2 0,-21.8 c 0,-19.8 -0.2,-21.9 -1.8,-23.4 -1.7,-1.6 -8.3,-1.7 -74.5,-1.7 l -72.6,0 z m -34.1,-31.4 c -3.2,2.1 -3.3,5.2 -3.2,55.6 0.2,47.7 0.3,50.7 2,52.6 1.6,1.7 3.4,2 12.1,2.2 5.6,0.1 13.4,0.1 17.4,-0.1 9.5,-0.4 11.2,0.8 15.6,11.2 1.9,4.5 3.8,9.3 4.2,10.7 0.4,1.4 4.5,11.7 9,23 8.6,21.3 12.8,31.9 18.9,48 2,5.2 4.6,11.7 5.7,14.5 1.2,2.7 3.9,9.7 6.1,15.4 2.2,5.7 5.3,13.3 6.9,16.9 1.7,3.6 4.5,10.8 6.3,16.1 1.9,5.3 4.1,11.6 5.1,14.1 3.5,9.4 8.7,22.6 10.2,26 0.8,1.9 2.9,7.3 4.5,12 1.7,4.7 4.3,11.1 5.9,14.2 5,10 3.8,12.8 -5.6,12.8 -10.5,0 -9.9,-2.4 -9.8,42.3 0.1,21 -0.2,42.3 -0.7,47.4 -1,10.5 0,16.1 3.5,19.3 2.2,2.1 3.1,2.2 17.2,1.8 8.1,-0.1 71.6,-0.2 141.1,0 l 126.2,0.3 2.3,-2.3 c 2.2,-2.2 2.3,-3 2.2,-16.3 -0.1,-7.7 -0.3,-30.6 -0.4,-50.8 l -0.1,-36.8 -2.5,-2.4 c -2.1,-2.2 -3.3,-2.5 -9.2,-2.5 -7.5,0 -11.3,-1.7 -11.3,-5.1 0,-1.1 1.3,-4.5 2.9,-7.7 3.6,-7.1 9.6,-21.7 10.5,-25.6 0.8,-3.2 8.3,-21 11.5,-27.1 1.2,-2.1 2.1,-4.6 2.1,-5.3 0,-0.8 1.7,-5.3 3.9,-10.1 2.1,-4.7 5.5,-13.8 7.6,-20.1 2,-6.3 6,-17.6 9,-25 2.9,-7.4 7,-18 9,-23.5 2,-5.5 4.2,-10.9 5,-12 0.7,-1.1 2.9,-6.4 4.9,-11.8 2,-5.4 4.7,-12.1 6,-15 1.3,-2.9 2.7,-6.8 3.1,-8.6 0.4,-1.9 2.3,-7 4.1,-11.4 1.9,-4.3 3.4,-8.2 3.4,-8.7 0,-2.6 7.2,-15.8 9.2,-16.7 1.4,-0.7 10,-1.1 22.6,-1.1 19.2,0 20.5,-0.1 22.6,-2.1 l 2.2,-2 0.2,-51.2 0.3,-51.2 -2.2,-2.3 -2.3,-2.4 -109.9,0 c -94.4,0 -110.3,0.2 -112.7,1.5 -1.5,0.8 -3,2 -3.2,2.7 -0.2,0.6 -0.3,23.9 -0.1,51.7 l 0.4,50.6 2.5,2.2 c 1.5,1.4 3.8,2.3 5.8,2.3 1.7,0 3.7,0.5 4.4,1.2 1.4,1.4 1.6,6 0.3,7.3 -0.5,0.6 -1.4,2.8 -2.1,5 -0.7,2.2 -2.3,6.5 -3.6,9.5 -1.3,3 -4,10 -6,15.5 -2,5.5 -4.9,12.6 -6.5,15.8 -1.6,3.2 -3.8,9 -5,13 -1.2,4 -2.8,8.5 -3.7,10.2 -1.8,3.6 -8.1,20.3 -12.8,34 -3,8.7 -6,13.6 -8.3,13.5 -2.5,-0.2 -5.1,-5 -10.6,-20.3 -3.5,-9.6 -7.3,-19.5 -8.4,-21.9 -1.1,-2.3 -3.8,-9.3 -6,-15.3 -2.1,-6.1 -4.8,-13.3 -6,-16 -1.1,-2.8 -3.7,-9.3 -5.7,-14.5 -2,-5.2 -4.8,-12 -6.2,-15 -3.2,-7 -6.2,-15.8 -6.2,-18.1 0,-2.2 2.2,-3.4 7.4,-4.2 7.7,-1.2 7.2,1.6 7.4,-48.5 0.1,-24.6 0.5,-47 0.8,-49.8 0.6,-5.3 -0.5,-8.8 -3.5,-11.1 -1.2,-0.9 -26.5,-1.2 -109.1,-1.2 -59.1,-0.1 -108,0.3 -108.6,0.7 z m 199.7,15.2 c 3.7,2 4,5.5 3.7,42.9 -0.3,41.7 0.3,39.1 -10,39.1 -5,0 -6,0.3 -7.3,2.4 -1.5,2.3 -1.3,3.2 4,17.1 3.1,8.1 6.2,16 7,17.5 0.8,1.6 2.6,5.7 3.9,9.2 1.3,3.5 5.3,13.9 9,23.3 3.7,9.3 8,20.5 9.6,24.7 1.6,4.3 3.8,9.7 4.9,12 1,2.4 3.5,8.4 5.4,13.4 1.9,5 4.4,10.9 5.6,13.2 2,3.8 10.1,25.2 14.3,37.5 1.1,3.2 2.7,6.1 3.4,6.4 2.4,0.9 5.2,-2.6 6.9,-8.6 0.8,-3.1 2.5,-7.6 3.6,-10.1 1.2,-2.5 3.6,-8.6 5.4,-13.5 1.8,-5 5.4,-14 8,-20 2.6,-6.1 5.8,-13.7 7.2,-17 1.4,-3.3 3.4,-7.8 4.6,-10 2,-3.9 9,-21.7 12.8,-32.5 1.1,-3 2.6,-6.9 3.3,-8.5 3.3,-6.9 5.6,-12.8 5.6,-14.1 0,-0.7 1.4,-4.4 3.1,-8.1 5.8,-12.6 10.9,-26.3 10.9,-29.3 0,-4.2 -3.5,-6.3 -9.2,-5.5 -3.5,0.5 -4.9,0.3 -6.8,-1.3 l -2.5,-2 0.3,-36.9 c 0.2,-20.2 0.5,-37.5 0.8,-38.4 1.1,-3.8 3.3,-3.9 98.3,-3.7 l 92.4,0.3 1.8,2.5 c 1.7,2.3 1.8,5.4 2,38.9 l 0.2,36.5 -2.6,2.2 c -2.6,2.2 -3.2,2.3 -18.4,1.9 -14.1,-0.3 -16.2,-0.2 -20,1.6 -4,1.9 -6.3,5.5 -6.3,9.8 0,0.9 -1.4,4.5 -3.1,8.1 -1.7,3.6 -5.1,11.9 -7.6,18.5 -2.5,6.6 -6.3,15.6 -8.3,20 -2,4.4 -7.2,17.4 -11.4,29 -4.3,11.5 -9,23.9 -10.6,27.5 -1.6,3.6 -6,14.6 -9.8,24.5 -3.8,9.9 -9.2,23.8 -12,31 -2.8,7.1 -6.1,15.7 -7.3,19 -1.2,3.3 -2.6,6.5 -3.1,7.1 -0.5,0.7 -2.8,7 -5.2,14 -2.4,7.1 -5.6,15.4 -7.1,18.4 -2.7,5.6 -7.8,18.5 -9.8,25.2 -0.9,3.2 -0.8,4 0.8,5.8 1.6,1.7 3,2 11.1,2 5.1,0 10,0.3 10.9,0.6 3.9,1.5 4.2,4.4 3.6,42.2 -0.6,33.3 -0.7,36.5 -2.4,37.7 -2.7,1.9 -60.6,2.8 -163.4,2.3 l -87.2,-0.3 -2.3,-2.3 c -2.2,-2.2 -2.3,-2.4 -2.6,-38.5 -0.4,-35.9 -0.4,-36.2 1.8,-39 2,-2.5 2.6,-2.7 10.1,-2.7 9.1,0 11.9,-1 11.9,-4.4 0,-2.7 -3.9,-13.6 -7.2,-19.9 -1.1,-2.3 -3.6,-8.5 -5.4,-13.7 -3.9,-11.4 -11.8,-31.9 -14.4,-37.5 -1,-2.2 -3.5,-8.1 -5.4,-13 -1.9,-5 -5,-13.1 -7,-18 -1.9,-5 -5.3,-14 -7.4,-20 -3.9,-10.8 -7,-18.3 -13.8,-33.5 -1.9,-4.2 -3.4,-8 -3.4,-8.4 0,-0.5 -1.8,-4.8 -4,-9.7 -2.2,-4.9 -4,-9.4 -4,-9.9 0,-1.4 -9.9,-27.5 -15.7,-41.5 -2.5,-6.1 -5.9,-14.5 -7.4,-18.8 -1.6,-4.3 -3.3,-8.7 -3.9,-9.7 -1.6,-3 -7.3,-4 -22.2,-4 -13.2,0 -13.8,-0.1 -15.2,-2.3 -2.1,-3.1 -1.8,-75.5 0.3,-78.1 1.2,-1.4 6.2,-1.6 45.5,-1.9 60.6,-0.5 136.7,0.3 138.7,1.3 z m 805.1,15.6 c -1.2,0.9 -1.5,4.8 -1.6,23 -0.1,24.6 -0.2,24.4 7.4,26.4 3.7,1 9.2,0.8 15.8,-0.6 1.6,-0.3 3.2,0.4 5.2,2.5 l 3,2.9 0,142.4 0,142.5 -2.2,2 c -3.2,2.9 -6.9,3.5 -14.2,2.3 -7.1,-1.1 -12,0 -13.6,3 -0.6,1.1 -1,11.4 -1,23.8 0,18.8 0.2,22.1 1.6,23.3 1.3,1 14.9,1.3 70.6,1.2 60,-0.1 69.3,-0.3 70.6,-1.7 1.2,-1.2 1.5,-5.2 1.5,-23.7 0,-27.5 1,-25.9 -15.9,-25.9 -10.1,0 -11.6,-0.2 -13.4,-2 -2,-2 -2,-3.3 -2,-63 l 0,-61 2.7,-1.7 c 2.4,-1.6 6.7,-1.7 54.9,-1.5 59.5,0.2 53.7,-0.7 66.1,9.5 4.1,3.4 9.8,8 12.6,10.3 10.1,7.8 9.8,6.8 9.3,37.3 -0.4,22.6 -0.9,114.1 -0.7,119.3 0.2,4.3 2.7,4.5 59.1,4.4 l 53.4,-0.1 1.2,-2.2 c 0.7,-1.5 1,-9.4 0.7,-24 -0.3,-17.8 -0.6,-22 -1.8,-23.3 -1.2,-1.1 -4.6,-1.6 -13.5,-2 -10.5,-0.4 -12.2,-0.8 -14.1,-2.7 l -2.2,-2.1 0.1,-52.9 c 0.1,-33.6 -0.2,-54 -0.9,-56 -0.5,-1.7 -2.1,-3.9 -3.5,-4.8 -1.4,-0.9 -8.7,-7.1 -16.4,-13.8 -7.6,-6.7 -15.7,-13.4 -17.9,-14.9 -6.6,-4.5 -6.6,-11.1 0.1,-14.6 1.8,-0.9 5,-3.4 7,-5.5 2.1,-2 5.4,-4.9 7.5,-6.3 4.5,-3 12.9,-10.1 19.4,-16.4 l 4.7,-4.6 0.3,-37.4 c 0.2,-20.6 0.3,-40 0.4,-43 0,-8.9 -2.5,-13.9 -9.5,-18.8 -3.3,-2.4 -6,-4.6 -6,-5 0,-0.4 -4.7,-4.8 -10.5,-9.7 -5.8,-5 -10.5,-9.3 -10.5,-9.7 0,-0.4 -3.1,-3 -6.9,-5.8 -3.8,-2.8 -7.1,-5.4 -7.3,-5.8 -0.2,-0.5 -2.9,-2.7 -6,-5 -3.2,-2.4 -5.8,-4.7 -5.8,-5.2 0,-0.6 -1.5,-1.9 -3.2,-3 -3.2,-1.9 -5.7,-1.9 -138.2,-1.7 -95.4,0.1 -135.3,0.5 -136.4,1.3 z m 226.8,52.2 c 1.9,1.4 4.1,3.2 4.8,3.9 0.7,0.7 1.7,1.3 2.2,1.3 0.5,0 4,2.8 7.8,6.2 3.8,3.5 9,8.1 11.6,10.4 l 4.6,4 0,25.2 c 0,14 -0.5,27.3 -1.1,30.1 -1.1,5.1 -3.7,7.9 -15,16.3 -2,1.5 -5.4,4.6 -7.5,6.8 -7.7,8.3 -4.3,7.8 -64.9,8.2 l -53.9,0.3 -1.8,-3.1 c -1.6,-2.8 -1.8,-7 -1.8,-55.3 l -0.1,-52.4 2.2,-2.3 c 1.2,-1.3 3.1,-2.4 4.3,-2.6 1.1,-0.2 25.3,-0.1 53.6,0 l 51.5,0.4 z m -257.3,-84 c -5.9,0.7 -5.8,0.1 -5.5,56 0.4,61.2 -1.2,55.6 14.8,55.1 11.3,-0.3 14.5,0.2 15.4,2.8 0.4,0.9 0.7,52.8 0.6,115.2 l 0,113.6 -2.6,2.3 c -2.3,2 -3.4,2.3 -7.3,1.7 -2.5,-0.3 -7.4,-0.6 -10.9,-0.7 -10.4,-0.3 -9.6,-4.8 -9.5,54.9 l 0,51.7 2.3,1.8 c 1.2,1 3,1.8 3.9,1.8 0.9,0.1 47,0.2 102.4,0.2 l 100.8,0.2 2.2,-2.3 2.2,-2.2 -0.2,-49.9 c -0.2,-33.8 -0.6,-50.7 -1.3,-52.1 -1.7,-3.1 -5.2,-3.9 -16.6,-3.9 -15.2,0 -14,3 -14.2,-35.3 l -0.2,-31.6 2.7,-2.1 c 2.7,-2.1 3.3,-2.2 32.4,-1.8 l 29.6,0.3 4.1,2.8 c 2.3,1.5 5.2,4.4 6.5,6.5 l 2.3,3.7 -0.6,80.5 c -0.4,47.2 -0.3,81.6 0.3,83.2 0.5,1.5 1.7,3 2.8,3.3 1,0.4 41,0.8 88.7,1 63.6,0.2 87.2,0 88.3,-0.9 0.9,-0.6 2,-2 2.5,-3.1 0.6,-1.2 0.8,-21.7 0.4,-52.8 l -0.5,-50.9 -2.4,-1.9 c -2.2,-1.8 -3.5,-1.9 -12.5,-1.4 -7.5,0.4 -10.8,0.3 -12.6,-0.7 l -2.5,-1.4 -0.5,-47.4 c -0.4,-35.9 -0.8,-48 -1.8,-49.7 -0.7,-1.3 -3.8,-4 -7,-6.2 -3.1,-2.1 -7,-5.3 -8.7,-7.1 -1.6,-1.7 -5.1,-4.7 -7.7,-6.7 -6.2,-4.5 -6.5,-7.9 -1.2,-12 5.8,-4.4 17.5,-14.4 22,-18.8 l 4.2,-4 0.1,-49 c 0.1,-27 0.4,-51.1 0.7,-53.7 1.1,-8 -0.2,-11.5 -6.4,-18.1 -3.1,-3.3 -7.6,-7.1 -9.9,-8.6 -4.2,-2.6 -23.7,-19 -34.8,-29.2 -3.3,-3 -8.7,-7.7 -12,-10.4 -3.3,-2.8 -9.5,-8.2 -13.7,-12.1 -9.2,-8.6 -13.5,-10.8 -20.8,-10.8 -3,0 -68,0 -144.5,0.1 -76.4,0 -143.9,0 -150,-0.1 -6,-0.1 -12.2,0 -13.8,0.2 z M 2999,866 c 2.1,1.1 9.9,7.5 17.3,14.2 7.4,6.8 17.2,15.4 21.7,19.3 10,8.4 11.2,9.5 13.1,12.2 0.8,1.1 2.8,2.7 4.6,3.7 1.8,0.9 6.8,5.1 11.1,9.4 6.8,6.6 8,8.3 8.4,11.7 0.3,2.2 0.6,25.1 0.7,50.9 l 0.3,46.9 -7.2,6.6 c -3.9,3.6 -11.6,10.9 -17.1,16.2 -12.4,11.9 -12.7,13.2 -4.1,20.6 12,10.6 26.1,24.9 27.2,27.7 0.7,2.1 1,17.5 0.8,50.3 l -0.2,47.3 2.7,2.7 c 2.5,2.6 3.2,2.8 13.4,3 15.9,0.3 14.6,-3.3 14.1,41.6 -0.4,33 -0.6,37 -2.2,38.5 -1.5,1.6 -7.3,1.7 -72.7,2 -78.8,0.4 -74,0.8 -75.3,-6.1 -0.3,-1.8 -0.6,-35.8 -0.6,-75.7 -0.1,-39.9 -0.4,-74.1 -0.7,-76 -0.5,-2.6 -2.4,-5.1 -8,-10.5 -11.9,-11.3 -8,-10.5 -52,-10.5 -21.5,0 -39.3,0.4 -40.6,0.9 -1.4,0.6 -2.8,1.8 -3.1,2.8 -0.3,1 -0.8,20.4 -1.1,43.2 -0.5,30.3 -0.3,42.1 0.5,44.2 1.6,3.8 5.4,4.9 17.1,4.9 9,0 9.9,0.2 11.3,2.2 1.4,1.9 1.6,7.4 1.6,39.5 0,36 -0.1,37.4 -2,39.3 -2,2 -3.3,2 -88.4,2 l -86.5,0 -2.5,-2.3 -2.5,-2.2 -0.3,-37.4 c -0.2,-44.3 -1.3,-40.7 12.9,-40.9 10.9,-0.2 14.5,-1.2 16,-4.3 1,-1.9 1.3,-30.2 1.3,-127.5 0,-106.4 -0.2,-125.3 -1.4,-127 -1.2,-1.6 -3.1,-2 -13.1,-2.5 -10.2,-0.5 -11.8,-0.8 -13.8,-2.7 l -2.2,-2.3 0.3,-36.7 0.3,-36.7 2.5,-2.3 2.5,-2.2 146,0 c 143.8,0 146,0 149.9,2 z m -401.1,12.4 c -0.3,0.3 -66.4,0.6 -146.9,0.7 l -146.4,0.2 -2.3,2.3 c -2.3,2.3 -2.3,2.6 -2.1,23.1 l 0.2,20.8 2.7,2.8 2.8,2.7 11.4,-0.6 c 11.4,-0.7 11.5,-0.7 13.1,1.8 1.4,2.2 1.6,15.4 1.4,144.8 -0.2,137.1 -0.3,142.4 -2.1,144.7 -1.8,2.2 -2.4,2.3 -12,2.2 -10.9,-0.2 -16,1.2 -16.9,4.8 -0.6,2.9 -0.1,41.9 0.7,44.2 0.3,1.2 0.9,2.1 1.3,2.2 0.4,0 69.3,0.1 153.2,0.3 99.8,0.2 153.3,-0.1 154.8,-0.7 1.2,-0.6 2.2,-1.5 2.2,-2.1 0,-0.6 0.1,-14.8 0.3,-31.5 0.2,-27.2 0,-30.7 -1.5,-32.5 -1.6,-2 -2.4,-2.1 -27.5,-1.8 -29.3,0.4 -29.3,0.4 -29.3,7.7 0,2.7 -0.7,5.1 -1.9,6.6 l -1.9,2.4 -62.6,0.6 c -34.4,0.4 -64.9,0.4 -67.7,0 -9.4,-1.1 -9,1.2 -9.5,-50.2 -0.2,-24.4 -0.6,-48.7 -0.9,-53.9 -0.6,-10.7 0.9,-15.6 5.5,-17.6 1.8,-0.8 12.1,-0.9 34.8,-0.5 l 32.4,0.6 1.9,2.4 c 1.1,1.4 1.9,3.9 1.9,6.3 0,2.8 0.7,4.6 2.5,6.3 2.4,2.5 2.6,2.5 20.3,2.5 9.9,0 20.6,0.3 24,0.6 5.5,0.6 6.2,0.5 8.5,-1.8 l 2.6,-2.6 -0.2,-39.1 c -0.2,-39 -0.2,-39.1 -2.5,-41.3 -2.2,-2.2 -2.4,-2.3 -28,-2 -29.1,0.4 -28.3,0.1 -27.2,7.9 0.8,5 0.1,8.1 -2.1,10 -1,0.8 -12.3,1.3 -35.3,1.6 l -34,0.4 -2.3,-2.3 -2.4,-2.4 0.2,-56.7 c 0.1,-31.3 0.5,-57.8 1,-58.9 0.4,-1.2 1.6,-2.5 2.6,-2.9 1,-0.4 31.3,-0.6 67.3,-0.5 52.4,0.1 66.1,0.4 68.6,1.5 3.1,1.3 3.3,1.8 4,7.4 1.1,9.8 0.5,9.6 28.8,9.8 13.2,0.1 25.1,0 26.2,-0.3 1.2,-0.2 2.5,-1.2 2.9,-2.1 0.4,-1 0.8,-15.4 1,-32.1 0.4,-29.9 0.3,-30.3 -1.8,-32.8 -1.7,-1.9 -3.5,-2.6 -7.7,-3.1 -3,-0.3 -5.8,-0.2 -6.1,0.1 z m -174.6,-29.6 -152.2,0.2 -2.2,3.1 -2.2,3.1 0.8,50.6 c 0.6,44.2 0.9,50.9 2.3,52.5 1.3,1.5 3,1.7 11.1,1.6 10.8,-0.3 13.6,0.3 15.2,3.3 0.7,1.4 1,16.6 0.9,48.7 -0.1,25.6 -0.3,76.7 -0.4,113.4 -0.1,65.6 -0.1,66.9 -2.1,68.4 -1.6,1.2 -3.9,1.4 -12.2,0.8 -10,-0.6 -10.3,-0.6 -12.8,1.9 l -2.5,2.5 0.1,51.6 c 0.1,43.7 0.4,51.8 1.6,53 0.8,0.8 1.7,1.5 2.1,1.6 2.3,0.4 368.1,0.5 369.9,0.2 1.2,-0.3 2.9,-1.6 3.8,-2.9 1.4,-2.2 1.6,-9.2 1.6,-61.6 -0.1,-50.5 -0.3,-59.4 -1.5,-61.4 -2.4,-3.5 -7.7,-4.7 -17.5,-4 -4.7,0.3 -29.1,0.9 -54.1,1.1 -52.9,0.7 -50.1,0.1 -51,9.9 -0.8,8.6 -0.8,8.6 -24.1,8.6 -10.8,0 -26.3,0.1 -34.4,0.2 -20,0.4 -18.4,3 -19,-31.2 -0.3,-22.2 -0.2,-26.9 1.1,-28.8 2.9,-4.4 8.5,-2 9.9,4.3 1.1,5.2 2.6,8.3 4.3,9.1 2.8,1.3 109.8,1.7 113.7,0.4 2.1,-0.7 3.7,-2.1 4.4,-3.8 0.8,-1.9 1.1,-21.8 0.9,-69.5 l -0.3,-66.9 -2.6,-2.2 -2.6,-2.3 -56.9,0.3 c -56.8,0.2 -56.8,0.2 -58.6,2.3 -0.9,1.2 -2,4.3 -2.4,6.9 -0.3,2.6 -1,5.5 -1.5,6.4 -1.3,2.5 -4.7,3.2 -7.4,1.4 l -2.4,-1.6 0.5,-27.7 c 0.3,-15.3 0.7,-28.5 1,-29.4 1,-3.5 4.9,-3.9 34.2,-3.8 40.4,0.1 42.2,0.5 42.2,9.4 0,4.1 0.9,5.9 4.2,8.4 1.3,1 14.6,1.4 58.1,1.8 l 56.4,0.5 2.7,-2.4 2.7,-2.3 0.1,-60 c 0.2,-63.6 0.1,-64 -4.5,-64.9 -3.9,-0.9 -63.3,-1.1 -218.4,-0.8 z m 173.9,15.5 c 25.9,0.2 29,0.4 30.5,2 1.7,1.6 1.8,5.3 1.7,48.4 -0.1,44.2 -0.2,46.6 -1.9,47.9 -1.9,1.4 -16.8,1.8 -70.4,1.8 -20,0 -20.1,0 -20.1,-9 0,-8.9 2.9,-8.4 -52.6,-8.4 -44.9,0 -48.3,0.1 -50.4,1.8 l -2.2,1.8 0.1,39.2 c 0,25.1 0.4,40 1.1,41.2 1.8,3.3 4.2,3.9 18.8,4.4 16.3,0.6 16.3,0.6 17,-8 0.4,-4.7 0.9,-5.7 3.6,-7.7 3.1,-2.2 3.4,-2.2 35.6,-1.9 32.3,0.3 46.9,0.8 50.3,1.8 3.8,1.2 3.9,3.1 3.9,58.3 0,29.5 -0.3,54.4 -0.7,55.3 -0.3,0.9 -1.4,2 -2.3,2.4 -0.9,0.3 -19,0.8 -40.2,1 -21.2,0.2 -39.5,0.6 -40.8,0.9 -3,0.7 -8.1,-2 -8.6,-4.8 -0.3,-1.2 -0.7,-4 -1,-6.2 -0.9,-6.9 -2.6,-7.5 -18.4,-6.8 -12.2,0.5 -13.9,0.8 -15.9,2.7 l -2.3,2.1 -0.1,39 0,39 2.4,2.1 c 3.3,2.8 14.1,3.4 61.6,3.4 36.1,0 36.5,0 38.8,-2.2 1.6,-1.5 2.3,-3.3 2.3,-6 0,-2.8 0.7,-4.6 2.5,-6.4 l 2.5,-2.5 40.8,0.2 c 45.1,0.2 45.6,0.3 46.7,6.2 0.4,1.8 0.5,22.7 0.3,46.6 l -0.3,43.3 -2.2,1.8 c -2.2,1.7 -9.3,1.8 -161,1.9 -87.3,0.1 -163.2,-0.1 -168.6,-0.5 -15.1,-1.1 -13.8,2.8 -13.8,-40.6 0,-22.5 0.4,-37.5 1,-38.6 0.9,-1.6 2.7,-2 12.3,-2.6 10.4,-0.6 11.5,-0.8 13.6,-3.2 l 2.2,-2.5 0,-49.2 c 0,-27.1 0,-83.5 0.1,-125.4 0,-52 -0.3,-76.9 -1.1,-78.2 -1.4,-2.7 -6.8,-4 -16.4,-3.9 -7.3,0.1 -8.1,-0.1 -10.1,-2.4 -2.1,-2.4 -2.1,-3 -1.8,-36.4 0.1,-18.6 0.2,-34.9 0.2,-36 0.1,-1.2 1,-3.2 2,-4.5 l 1.9,-2.4 31.9,-0.5 c 31.6,-0.5 222.8,-0.3 277.5,0.3 z m -966.3,14.1 c -0.3,0.3 -67.7,0.6 -149.7,0.7 -142.7,0.1 -149.3,0.2 -151.5,1.9 -2.2,1.8 -2.2,2.1 -1.9,22.1 0.2,11.2 0.8,21.3 1.3,22.6 1.5,4.1 7.1,5.6 17.1,4.8 8.3,-0.6 8.9,-0.5 11.1,1.7 l 2.4,2.4 -0.1,142.7 -0.1,142.6 -2.2,2.3 c -2.1,2.1 -3.2,2.2 -13.7,2.3 -16.6,0 -15.6,-1.6 -15.6,26 0,18.2 0.3,22.5 1.4,23.5 1.2,0.9 37.2,1.2 154.3,1.3 151.6,0.2 152.8,0.2 154.8,-1.8 2,-1.9 2,-3.2 2,-32.7 0,-28.2 -0.1,-30.9 -1.8,-32.5 -1.6,-1.6 -4.1,-1.8 -26,-1.8 -29.1,0 -29.2,0 -29.9,8 -0.8,10.1 5.5,9.2 -71.7,9.8 l -67.4,0.4 -2.3,-2.4 -2.3,-2.5 0.1,-56.4 c 0,-54.3 0.1,-56.5 2,-58.9 l 1.9,-2.5 34.3,0 c 39.6,0 37.6,-0.5 37.6,9.3 0,8.3 0.3,8.4 29.4,8.9 l 23.9,0.3 1.8,-2.5 c 1.7,-2.3 1.8,-5.4 2,-41.8 0.2,-44.7 0.6,-42.6 -7.8,-42.6 -2.7,-0.1 -13.9,0 -25,0.2 -18.8,0.2 -20.4,0.3 -22.3,2.2 -1.5,1.5 -2,3.3 -2,6.9 0,3.3 -0.6,5.6 -1.9,7.2 l -1.9,2.4 -33.4,0.6 c -37.4,0.7 -37.2,0.8 -38.2,-5.8 -0.3,-2.1 -0.4,-28.4 -0.3,-58.5 0.2,-52.4 0.3,-54.7 2.2,-56.8 l 1.9,-2.1 67.2,0.2 c 50.8,0.2 67.6,0.5 68.8,1.5 2,1.4 3.6,6.5 3.6,11.1 0,5.8 1.6,6.1 28.8,6.5 24,0.3 24.4,0.3 26.2,-1.9 1.5,-1.9 1.8,-5.7 2.6,-30 1,-33.8 1,-34.2 -1.3,-36.4 -1.8,-1.7 -7.5,-3.4 -8.4,-2.5 z M 1310,848.7 c -5.2,0.2 -10.5,0.5 -11.7,0.8 -4.8,1.1 -5.1,3.5 -4.2,37 0.4,17 0.6,38.3 0.3,47.3 -0.5,17.4 0.4,23.5 3.6,25.2 1,0.6 6.3,0.9 11.7,0.8 8,-0.2 10.3,0.1 12.5,1.6 l 2.7,1.8 0,114 c -0.1,110.8 -0.1,114 -2,115.9 -1.6,1.6 -3.4,1.9 -12.9,1.9 -16,0 -15,-2.2 -15.2,30.7 -0.2,32.1 -0.6,63.8 -0.9,71.1 -0.1,3.8 0.3,5.8 1.4,6.9 1.5,1.5 19,1.6 186.9,1.6 102,0 186.4,-0.3 187.6,-0.7 1.2,-0.4 2.6,-1.5 3.1,-2.4 1.4,-2.7 1.8,-119.3 0.4,-121.8 -3,-5.4 0.7,-5.2 -81.1,-3.8 -34.7,0.7 -37.5,0.8 -39.8,2.6 -2,1.6 -2.4,2.8 -2.4,6.9 0,7.6 -1.8,8.9 -13.2,9 -41.2,0.6 -60.2,0.3 -61.8,-0.8 -1.6,-1.1 -1.9,-3.9 -2.4,-25.5 -0.4,-13.4 -0.7,-26 -0.7,-28.1 -0.1,-4.2 2.3,-7.7 5.2,-7.7 2.3,0 5.9,3.8 5.9,6.2 0,2.6 3.1,8.6 4.9,9.4 1.9,0.9 97.8,2.1 107.5,1.4 11.6,-0.8 10.6,5.8 10.9,-73.3 l 0.2,-67.9 -2.9,-2.4 -2.8,-2.5 -55.2,0.5 c -30.3,0.3 -56.1,0.5 -57.3,0.6 -3,0 -4.6,3.3 -4.8,9.7 -0.1,2.9 -0.8,6 -1.5,6.8 -3.2,3.9 -10.1,-1 -10,-7 0.4,-52.3 0.3,-51.5 2.9,-53.4 2.1,-1.6 5.1,-1.8 36.8,-1.6 39.7,0.3 37.4,-0.3 38.1,9.5 0.4,4.9 0.9,6.4 2.6,7.5 1.8,1.2 12,1.6 55.7,2.2 29.3,0.4 55.1,0.7 57.2,0.7 2.5,0 4.5,-0.7 6,-2.2 l 2.2,-2.3 0,-61.1 c 0,-59.3 -0.1,-61.2 -1.9,-63 -1.9,-1.7 -9.6,-1.8 -175.7,-1.8 -95.6,0 -174.3,-0.1 -175.1,-0.3 -0.7,-0.1 -5.6,-0.1 -10.8,0 z m 344.5,17.8 c 2.4,2.4 2.5,2.8 2.6,18.7 0,9 0.1,29.5 0.2,45.7 l 0.2,29.3 -2.4,1.9 c -2.1,1.7 -4.3,1.9 -26.5,2 -13.2,0.1 -32.1,0.2 -41.8,0.2 -16,0.1 -17.8,0 -19.7,-1.7 -1.4,-1.3 -2.1,-3.1 -2.1,-5.7 0,-4.9 -1.6,-8.4 -4.4,-9.5 -1.1,-0.5 -23.6,-0.7 -49.9,-0.4 l -47.9,0.5 -1.9,2.4 c -1.8,2.2 -1.9,4.4 -1.9,40.1 0,24.4 0.4,38.8 1.1,40.8 1.5,4.2 4.9,5.1 19.4,5.1 15,-0.1 16.5,-0.8 16.5,-7.9 0,-3.7 0.6,-5.6 2.3,-7.6 l 2.4,-2.7 41.9,0.2 c 38.8,0.1 42.1,0.3 44.4,2 1.5,1.1 2.7,3.1 3,5.2 0.3,1.9 0.3,27.1 0,56.1 -0.4,40.6 -0.8,53 -1.8,54 -0.9,0.9 -11.2,1.3 -44.7,1.5 l -43.4,0.2 -2.1,-2.6 c -1.2,-1.5 -2,-4.1 -2,-6.2 0,-2.1 -0.6,-4.5 -1.3,-5.5 -1.8,-2.5 -7.6,-3.5 -14.1,-2.4 -3.7,0.7 -7,0.7 -9.6,0 -5.9,-1.5 -9,-0.5 -10.6,3.5 -1.2,2.7 -1.4,10.5 -1.2,42.4 0.3,36.2 0.4,39.2 2.1,40.4 1.4,1 12.2,1.3 50.7,1.4 47.9,0.2 48.9,0.2 50.9,-1.8 1.6,-1.6 2,-3.3 1.9,-7.2 0,-3.9 0.4,-5.6 1.6,-6.5 1.3,-0.9 11.9,-1.2 44.2,-1 40.7,0.2 42.5,0.2 44.4,2.1 1.8,1.9 1.9,3.8 2.1,43.5 0.2,45.1 -0.2,48.7 -4.8,51.8 -2.6,1.6 -12.4,1.7 -169.6,1.7 l -166.9,0 -2.2,-2.6 c -2.2,-2.5 -2.2,-3 -2.4,-39.1 l -0.2,-36.6 2.6,-2.1 c 2.3,-1.8 4,-2.1 12.3,-2.1 6.8,0 10.3,-0.4 11.7,-1.4 1.9,-1.4 1.9,-4.1 2.4,-119.3 0.3,-64.8 0.4,-122.4 0.2,-128.1 -0.4,-12.6 -0.5,-12.6 -14.4,-12.3 -9.3,0.2 -9.9,0.1 -12.3,-2.3 l -2.5,-2.5 0.4,-37.8 c 0.5,-34.3 0.7,-37.9 2.3,-39 1.3,-1 35.9,-1.3 170,-1.3 l 168.4,0 z M 798,879.3 c -1.6,0.4 -3.4,1.7 -4,2.8 -0.8,1.3 -1,9.3 -0.8,23.4 0.3,19 0.5,21.6 2.1,23.2 1.5,1.5 3.7,1.8 14.1,1.9 6.8,0.1 12.9,0.4 13.5,0.9 0.7,0.4 1.7,1.9 2.2,3.3 0.7,1.8 1,50.1 1,143.2 -0.1,135.7 -0.2,140.6 -2,143 -1.8,2.4 -2.3,2.5 -11.2,2.2 -10.2,-0.3 -17.5,1.2 -18.8,3.7 -0.4,0.9 -0.9,11.8 -1,24.3 -0.1,21.9 -0.1,22.7 1.9,23.8 2.4,1.3 141.8,0.9 143.9,-0.4 2.7,-1.7 3.6,-6.2 3,-15.2 -0.3,-4.9 -0.2,-13.6 0.2,-19.4 1.1,-15.6 -0.4,-16.9 -18.6,-15.7 -8.7,0.6 -9.3,0.5 -11.4,-1.7 l -2.1,-2.3 -0.5,-83.9 c -0.3,-46.1 -0.7,-92.5 -1,-103 -0.4,-17.8 -0.3,-19.3 1.5,-20.9 1.6,-1.5 2.2,-1.5 4.6,-0.3 3,1.4 3.3,1.8 18,23.3 15.6,23 20.2,29.7 24.9,36.2 2.5,3.4 4.5,6.5 4.5,6.9 0,0.5 1.3,2.2 2.9,3.9 1.6,1.6 6.8,8.8 11.7,16 4.8,7.1 10.5,15.5 12.6,18.5 9.3,13.1 11.2,15.9 15.8,22 2.6,3.6 8.5,12.1 13.1,19 4.6,6.9 11,16.1 14.3,20.4 3.2,4.3 9.4,13.1 13.8,19.5 4.3,6.4 10.9,15.9 14.8,21.1 3.8,5.2 8.1,11.5 9.5,14 1.4,2.5 3.8,6.1 5.3,8.1 1.5,2 6.2,8.5 10.4,14.5 12.6,17.7 13,18.3 14.7,19 1.7,0.8 116.5,1.6 119.2,0.8 3.2,-0.9 3.6,-4.6 3.1,-26.7 -0.6,-26.1 0,-25.1 -13.4,-24.7 -11.9,0.4 -13.3,0.2 -15.8,-1.8 l -2.2,-1.8 0.1,-142.9 0.1,-142.9 2.3,-2.4 c 2,-1.9 3.3,-2.3 7.3,-2.2 16.9,0.7 17.4,0.7 20,-2.3 2.4,-2.8 2.4,-2.9 2.2,-23.7 -0.3,-19.6 -0.4,-21.1 -2.4,-23 -2,-2.1 -2.6,-2.1 -72.5,-2.1 -69.4,0 -70.4,0.1 -72,2 -1.5,1.8 -1.6,4.7 -1.3,23.3 0.2,11.7 0.6,22 1,23 0.8,2.7 6.8,3.8 16.4,3.1 8.1,-0.5 8.7,-0.4 11.4,1.9 l 2.9,2.4 0.2,15 c 0.1,8.2 0.4,50.9 0.6,94.9 0.2,44 0.7,84.3 1.2,89.5 1.2,13.1 -0.5,17.2 -6.7,15.6 -1.7,-0.4 -3.5,-2.4 -5.6,-6.4 -1.7,-3.2 -5.5,-8.9 -8.4,-12.7 -3,-3.9 -6.9,-9.3 -8.6,-12 -1.7,-2.8 -5.5,-8.4 -8.5,-12.5 -7.4,-10.2 -16.4,-23.2 -20,-29.1 -5.6,-9.1 -11,-17 -15.8,-23.2 -2.6,-3.4 -6,-8.2 -7.5,-10.6 -1.5,-2.4 -4.6,-6.8 -6.8,-9.6 -2.3,-2.8 -4.7,-6.2 -5.3,-7.4 -0.7,-1.2 -4.7,-7 -9,-12.9 -4.2,-5.9 -10.5,-15.2 -14,-20.7 -3.5,-5.5 -7.3,-11 -8.4,-12.3 -1.2,-1.2 -3.3,-4.3 -4.7,-6.7 -3.5,-6.1 -11.6,-17.5 -17.5,-24.8 -2.8,-3.4 -6.1,-7.9 -7.3,-10.1 -1.2,-2.1 -4,-5.9 -6.1,-8.5 -2.1,-2.5 -5.2,-7.1 -7,-10.1 -1.7,-3 -4.4,-7.3 -5.9,-9.5 -1.6,-2.2 -6,-8.7 -9.8,-14.5 -3.8,-5.7 -7.6,-11.2 -8.4,-12 -4.5,-4.7 -2.1,-4.5 -61.2,-5 -30.7,-0.3 -57.1,-0.2 -58.8,0.3 z m -35.5,-30.5 c -1.1,0.2 -2.4,0.8 -3,1.3 -1,1 -0.9,100.8 0.2,104.4 0.3,1.1 1.5,3 2.6,4.2 1.9,2.1 2.9,2.3 13.9,2.3 11.1,0 11.8,0.1 13.2,2.2 2.1,3.4 2.3,226.5 0.1,229.4 -1.2,1.7 -2.7,1.9 -13.3,1.9 -14.3,0 -15.6,0.7 -16.6,8.8 -0.3,2.9 -0.6,22.5 -0.7,43.7 -0.2,57.2 -0.2,56.4 2,59.1 1.8,2.2 2,2.3 8.2,1.1 4.9,-1 30.4,-1.3 105.6,-1.4 l 99.3,-0.1 2.1,-2.3 c 2.3,-2.5 2.4,-7.2 1.6,-75.2 -0.4,-35.2 0.9,-32.7 -17.3,-32.7 -11.3,0 -12.7,-0.2 -14,-1.9 -1.1,-1.6 -1.4,-8 -1.6,-32.5 -0.3,-37.3 -0.2,-40.1 1.6,-41.9 2.5,-2.5 5,-0.4 11.6,9.9 3.6,5.5 8.3,12.3 10.5,15.1 2.2,2.8 7,9.6 10.7,15.2 3.6,5.5 7.7,11.4 9.1,13.1 1.3,1.6 3.4,4.8 4.5,7.1 1.1,2.2 2.7,4.6 3.6,5.3 0.8,0.7 3,3.6 4.8,6.4 1.8,2.9 4.9,7.2 6.9,9.7 2,2.5 5.4,7.3 7.5,10.7 2.2,3.4 6.5,9.9 9.7,14.5 3.1,4.6 8.3,12.1 11.4,16.8 8.3,12.4 12,17.6 19.8,28 3.9,5.1 8.1,11.2 9.5,13.6 4.8,8.1 13,18.2 15.7,19.3 2,0.7 28.4,1.2 88.1,1.3 l 85.4,0.3 1.9,-2.4 c 1.8,-2.2 1.9,-4.3 1.5,-53.9 -0.4,-48 -0.5,-51.7 -2.2,-52.9 -1.2,-0.9 -5.4,-1.3 -13.4,-1.3 -8.6,0 -12.1,-0.4 -13.7,-1.5 l -2.1,-1.5 0,-113.7 c 0,-62.6 0.4,-114.8 0.9,-116 0.7,-2 1.5,-2.2 13.9,-2.5 12.2,-0.3 13.3,-0.5 15,-2.5 1.6,-2.1 1.8,-4.6 1.5,-30.5 -0.1,-15.6 0.1,-38 0.5,-49.8 0.8,-23.2 0.3,-26.1 -4.2,-27.6 -1.2,-0.4 -49.3,-0.6 -106.7,-0.6 l -104.5,0 -1.8,2.3 c -1.7,2 -1.8,4 -1.4,24.3 0.7,31 0.8,71.5 0.2,72.5 -1.3,2 1.6,8.3 4.7,10.2 2.7,1.7 4.7,1.9 13.5,1.7 14.8,-0.4 14.2,-1.6 14.4,26.6 0.3,55.1 0.4,53.4 -1.4,55.2 -1.5,1.5 -1.9,1.6 -4,0.2 -1.3,-0.9 -3.7,-4 -5.3,-6.9 -1.6,-3 -6.4,-10.3 -10.7,-16.4 -4.3,-6 -8.7,-12.4 -9.8,-14 -1.1,-1.7 -4.6,-6.7 -7.8,-11.3 -3.1,-4.5 -9.7,-14.1 -14.7,-21.3 -4.9,-7.1 -12.7,-18 -17.2,-24.1 -4.5,-6.2 -9.4,-13.6 -10.8,-16.6 -1.4,-2.9 -4.1,-7 -5.9,-9 -1.9,-2 -6,-7.5 -9.1,-12.2 -10.3,-15.1 -17.4,-25.4 -21.5,-31 -3.8,-5.1 -5.7,-8 -14.7,-21.7 -1.9,-2.9 -4.8,-5.8 -6.6,-6.6 -2.7,-1.3 -15.5,-1.6 -86.2,-1.9 -45.6,-0.2 -83.9,-0.2 -85,0 z m 161.4,17.4 c 1.9,1.3 6.5,6.6 10.2,11.8 3.7,5.2 8.5,11.8 10.7,14.5 2.1,2.8 4.6,6.4 5.5,8 0.8,1.7 4.1,5.9 7.2,9.5 3.1,3.6 6.8,8.5 8.3,11 1.4,2.5 3.5,5.6 4.8,7 1.2,1.4 4.9,6.5 8.2,11.5 3.2,4.9 6.7,9.6 7.6,10.4 1,0.8 2.6,3.1 3.6,5 1,2 4.1,6.4 6.9,9.9 2.8,3.5 5.1,6.7 5.1,7.1 0,0.4 2.4,3.9 5.3,7.8 15.2,20.4 33.8,46.4 36.5,51 1.7,2.9 5.3,8.1 8,11.5 2.7,3.5 7,9.6 9.6,13.5 2.6,4 5.2,7.5 5.7,7.9 0.5,0.3 2.6,3.1 4.5,6.2 5,7.8 11.3,15.2 13,15.2 0.7,0 1.6,-1 1.8,-2.3 0.3,-1.2 0.8,-31.3 1.1,-66.8 l 0.6,-64.5 -2.2,-1.9 c -1.7,-1.7 -4.1,-2.1 -14.1,-2.5 -10.3,-0.5 -12.2,-0.8 -13.4,-2.5 -1.1,-1.5 -1.3,-8.2 -1,-38.4 0.3,-20.2 0.8,-37.4 1.1,-38.3 0.4,-0.9 1.4,-2 2.3,-2.4 0.9,-0.5 40.9,-1 88.8,-1.2 85.5,-0.3 87,-0.3 89.5,1.6 l 2.4,2 0.5,35.4 c 0.3,22.1 0.1,36.6 -0.5,38.8 l -1,3.5 -11,0.6 c -12,0.7 -15.8,1.7 -17.5,4.9 -0.8,1.5 -1,36.8 -0.8,127.5 0.3,117.5 0.4,125.5 2,127.2 1.4,1.3 4.2,1.8 13.8,2.2 9.1,0.5 12.3,1 13.5,2.2 1.4,1.4 1.6,5.9 1.5,38.3 -0.1,37.5 -0.3,39.5 -4,41.3 -2.7,1.3 -138.9,1.6 -144.6,0.4 -5.6,-1.3 -8.2,-3.5 -11.7,-9.9 -1.2,-2.2 -5.4,-8.3 -9.3,-13.4 -8.5,-11.3 -15.3,-20.6 -21.8,-30.2 -2.6,-3.9 -7.8,-11.2 -11.5,-16.1 -3.7,-5 -8,-11 -9.6,-13.4 -4.5,-6.6 -10.6,-15.5 -18.2,-26.3 -9.9,-14 -12.2,-17.1 -18.4,-25.2 -3.1,-4 -6.2,-8.3 -6.9,-9.7 -0.7,-1.3 -3.6,-5.3 -6.5,-8.9 -2.8,-3.6 -7.3,-9.9 -9.9,-14 -2.6,-4.1 -6.7,-10 -9.1,-13 -2.4,-3 -4.4,-5.9 -4.5,-6.4 0,-0.6 -1.1,-2.1 -2.4,-3.5 -1.3,-1.5 -5.6,-7.4 -9.6,-13.3 -6.9,-10.4 -10.4,-13.4 -12,-10.8 -1.2,1.9 -1.8,123.9 -0.7,127.3 1.3,3.9 4.1,4.7 16.1,4.7 9,0 10.5,0.3 12.1,2 1.6,1.8 1.7,4.6 1.3,39.6 l -0.4,37.6 -2.4,2 c -2.3,1.9 -4.6,1.9 -88.6,1.6 -85.7,-0.3 -86.3,-0.4 -89.1,-2.4 l -2.8,-2.1 -0.3,-36.4 c -0.2,-30.3 0,-36.8 1.2,-38.4 1.2,-1.7 3.4,-2.2 13.7,-3 11.7,-0.9 12.4,-1.1 13.6,-3.5 1,-2 1.3,-29 1.3,-128.3 l 0,-125.8 -2.5,-2.4 c -2.2,-2.3 -3.1,-2.5 -12.8,-2.5 -8.8,0 -10.9,-0.3 -12.8,-1.9 l -2.4,-1.9 0.4,-36.4 c 0.2,-20.5 0.7,-37.1 1.3,-38.1 0.5,-1 1.9,-2.2 3.1,-2.6 1.2,-0.4 33,-0.9 70.7,-1 l 68.5,-0.2 z M 398.2,4.1504 l 0,2434.0496 193.6,0 0,-2143.4 1346.3,487.2 1320.35,-489 0,2294.9 c -798.8111,8.063 -1677.0331,1.4 -2503.15,1.4 -93.6135,0 -194.69217,44.7733 -272.3,111.7 -73.99333,63.8097 -119.86108,162.2581 -120.11269,257.8548 -0.29833,113.3508 69.97151,218.3398 158.61269,277.2452 64.95338,43.164 151.94691,81.2 222,81.2 l 337.05,0 0,518.2 301.1104,-229.2539 309.8896,229.2539 0,-859.1 -611,0 0,201.9 -270.072,0 c -49.59254,0 -130.78193,-28.3316 -169.578,-62.5 -48.77179,-42.9542 -81.15971,-94.705 -81.4,-156.9452 -0.221,-57.2447 8.8407,-90.1639 48.7,-134.8548 39.8593,-44.6909 135.75613,-94.9624 192.7,-95 l 2651.5,-1.75 0,-2723.0996 -1524.8682,587.58046 z M 3055.5,2000.9 c -3.9,1.8 -8.6,6.2 -11.8,11.1 -5.6,8.2 3.5,22.5 15.9,25 8.6,1.8 42.7,-0.3 45.7,-2.9 3.7,-3 2.2,-6.3 -7,-14.7 -10.8,-9.9 -20.1,-17 -24.7,-18.9 -4.8,-2 -13.2,-1.9 -18.1,0.4 z m -157.5,-0.7 c -4.2,1.1 -11.7,8 -13.6,12.5 -2.1,4.9 -1.7,9.5 1.1,13.7 8.7,12.8 18.2,14.1 58.2,8 4.1,-0.6 5.9,-3.5 4.2,-6.7 -0.7,-1.2 -1.6,-2.5 -2.2,-2.8 -1.7,-1.1 -13.7,-11.2 -18.6,-15.5 -9.7,-8.7 -19.7,-11.9 -29.1,-9.2 z m -78.5,0.1 c -4.7,1.9 -11.3,6.5 -13,9.1 -2.2,3.3 -3,11.7 -1.5,14.7 2.5,4.7 7.1,9.6 11.1,11.8 3.2,1.9 5.4,2.2 12.2,2.2 4.5,0 10.6,-0.5 13.6,-1.1 3,-0.5 8.8,-1 13,-1 8.2,0 14.1,-2.4 14.1,-5.7 0,-2.3 -17,-18.3 -25.5,-24 -10.7,-7.2 -17,-8.7 -24,-6 z m -79.6,0.1 c -11.2,4 -18.2,14.6 -14.9,22.7 1.8,4.3 7.5,10.6 11.2,12.5 4.5,2.3 15.2,2.8 26.3,1.1 5.5,-0.8 11.6,-1.2 13.6,-1 5.6,0.7 11.8,-1.3 12.5,-4.1 0.8,-3.3 -0.9,-6 -6,-9.5 -2.4,-1.7 -5.6,-4.5 -7.1,-6.2 -3.9,-4.7 -15.3,-13 -20.8,-15.1 -5.5,-2.1 -9.8,-2.2 -14.8,-0.4 z m -79.4,0.1 c -9.3,2.5 -18.2,14.9 -15.5,21.9 1.3,3.4 8.6,11.3 12.4,13.4 3.9,2.1 20.4,2.3 35.6,0.4 14,-1.7 15.4,-2.2 15.8,-5.2 0.2,-1.9 -1.1,-4 -5.5,-8.5 -9.9,-10.1 -23.3,-20.4 -28.7,-22 -5.9,-1.8 -7.5,-1.8 -14.1,0 z m -81.1,-0.3 c -5,3.1 -11.3,9.2 -12.9,12.3 -2.9,6.3 0.3,16.1 6.6,20.1 9.5,6 16.4,6.4 43.8,2.9 11,-1.4 13.8,-2.8 12.7,-6.3 -1.2,-3.6 -23.5,-23 -30.4,-26.4 -7.2,-3.6 -16.2,-4.7 -19.8,-2.6 z m -157.9,0.4 c -8.3,2.6 -15.5,11.1 -15.5,18.3 0,4.7 3.6,11.3 7.5,14 6.6,4.5 12.1,5.2 31,4.1 9.3,-0.5 18.2,-1 19.8,-1 2.9,0 6.7,-3.1 6.7,-5.5 0,-3.3 -20.6,-22.2 -30.6,-28.1 -5.4,-3.2 -12.4,-3.8 -18.9,-1.8 z m -78.2,-0.5 c -5.5,1 -6.3,1.5 -11.1,7.2 -4.6,5.3 -6.4,10.4 -5.2,14.5 2.3,7.8 5.2,10.7 14,14.2 5.6,2.2 18.2,2.7 25.6,1 2.2,-0.5 8.3,-1.2 13.4,-1.5 10.4,-0.5 12.7,-1.7 11.6,-5.9 -0.3,-1.4 -2.7,-4.2 -5.3,-6.3 -2.6,-2.1 -7.4,-6.3 -10.8,-9.4 -14.7,-13.5 -20.7,-16.1 -32.2,-13.8 z m -80.5,0.4 c -5.7,1.9 -13.3,9.1 -14.9,14.3 -0.9,3 -0.7,4.7 0.8,9.2 2,6.1 7.5,11.1 14.1,13 4.8,1.3 17.7,1.3 23.9,0 2.6,-0.6 8.7,-1.1 13.5,-1.3 7.4,-0.2 9.1,-0.5 10.9,-2.3 2.9,-2.9 1.9,-5.5 -3.9,-10.1 -2.6,-2 -7.4,-6.2 -10.7,-9.3 -7.9,-7.5 -19.3,-14.1 -24.8,-14.6 -2.3,-0.2 -6.3,0.3 -8.9,1.1 z m -82.3,1.4 c -3.3,1.5 -6.8,3.7 -7.7,4.7 -2.8,3.1 -4.8,9 -4.8,13.7 0,5.6 2.3,8.7 10.4,13.9 l 6.1,3.9 14,-0.6 c 19.9,-0.7 29.2,-1.9 31.6,-4.1 3.8,-3.5 2.5,-5.6 -10.4,-16.8 -15.3,-13.3 -18.5,-15.5 -23.3,-16.7 -6.4,-1.4 -9.6,-1 -15.9,2 z m -78.5,-0.8 c -8,3.6 -14,11.1 -14,17.6 0,5.4 5.8,13 12.5,16.6 4.8,2.5 14.9,2.8 34.6,1.1 14.5,-1.3 16.9,-2.2 16.9,-6.4 0,-2.4 -1.2,-3.9 -6.7,-8.4 -3.8,-3 -8,-7.1 -9.5,-9 -3.4,-4.2 -11.8,-10 -17.8,-12.1 -5.8,-2 -10.6,-1.9 -16,0.6 z m -306.5,-0.4 c -5.4,2.2 -9.4,5.1 -21.7,16 -15.9,14.1 -16.3,17.4 -2,18.7 18.8,1.8 27,2.6 30.8,3.2 3.2,0.5 5.2,0 9.1,-2 15.6,-7.8 18.9,-19 9.1,-30.1 -6.1,-7.1 -16.4,-9.4 -25.3,-5.8 z m -79.3,0.3 c -6.1,2.2 -16.4,9.7 -26.9,19.7 -11.2,10.5 -9.8,13.4 7.2,15.4 31.9,3.7 40,2 47.7,-10 4.7,-7.5 3.5,-13.5 -4.1,-20.4 -3.8,-3.5 -12.1,-6.8 -16.5,-6.6 -1.2,0 -4.5,0.9 -7.4,1.9 z m -78.8,-0.6 c -5.3,1.7 -16.3,9.4 -23.6,16.5 -3.1,3.1 -7.1,6.8 -8.7,8.3 -3.4,3 -4.1,6.8 -1.5,8.9 1.6,1.3 11,2.3 35.1,3.5 10.8,0.6 11.4,0.5 15.5,-1.9 11.7,-7 15.5,-15.6 10.8,-24.7 -4.8,-9.5 -16.6,-14 -27.6,-10.6 z m -80,-0.1 c -5.8,2.2 -24.6,17 -31.6,24.9 -2.4,2.7 -2.3,7.4 0.1,8.7 1,0.6 7.7,1.7 14.8,2.6 7,0.8 15,1.8 17.6,2.1 6.2,0.9 16.3,-1.8 21.8,-5.8 4.4,-3.2 7.8,-9.4 7.9,-14.2 0,-6.6 -7.2,-15.8 -14.5,-18.6 -3.5,-1.3 -12.2,-1.1 -16.1,0.3 z m -80.2,0.6 c -6,2.1 -9.7,4.9 -22.9,17 -9.8,8.9 -11,10.8 -9.4,13.9 1.5,2.8 3.2,3.2 15.6,4.5 17.8,1.9 30.2,1.5 35.5,-0.9 6.8,-3.1 10.4,-7.3 12,-13.8 l 1.3,-5.6 -4.4,-6.5 c -3.3,-4.9 -5.4,-6.9 -8.4,-8.1 -6.2,-2.5 -13.2,-2.7 -19.3,-0.5 z m -239.4,0 c -6.3,2.5 -13.3,7.8 -23.9,18.3 -7.3,7.1 -8.9,9.3 -8.9,11.7 0,4.2 2.5,5.3 10.2,4.5 4.5,-0.4 7.9,-0.2 11.7,1 6.2,1.8 17.3,2.1 25.2,0.6 7.6,-1.5 12.6,-5.1 15.5,-11.3 3.9,-8.5 3,-12.9 -4.3,-19.9 -6.8,-6.6 -16.4,-8.4 -25.5,-4.9 z m -77.9,-0.4 c -5.7,2.1 -11.1,5.8 -19.7,13.7 -4.3,4 -9.5,8.6 -11.5,10.1 -3.9,2.9 -4.9,6.5 -2.4,8.5 1.9,1.6 9.1,2.8 24.7,4.3 16.4,1.6 18.8,1.5 24.9,-1.2 15,-6.4 17.9,-22 5.8,-31.2 -7.7,-5.8 -14.1,-7.1 -21.8,-4.2 z m -78.7,0 c -5.8,1.6 -16,9 -27.9,20.3 -6,5.6 -7.3,7.3 -7.3,9.9 0,4.2 2.6,5 17.5,5.7 6.6,0.4 15,0.9 18.6,1.2 13.3,1.2 24.9,-5.3 28,-15.5 1.7,-5.8 0.4,-8.9 -7,-16.4 -6.6,-6.5 -6.9,-6.7 -11.7,-6.6 -2.7,0 -7.3,0.7 -10.2,1.4 z m -82.7,1.4 c -9.7,4.6 -32.5,24.1 -32.5,27.7 0.1,4.3 4.4,6.4 13.5,6.4 2.7,0 10.2,0.8 16.6,1.7 11.1,1.6 12,1.6 18,-0.1 11.3,-3.1 15.7,-7.8 16.7,-17.7 0.5,-5.7 -2.2,-11.4 -7.2,-15.3 -8.5,-6.4 -15.8,-7.2 -25.1,-2.7 z m -79.3,-0.6 c -5.7,3 -14.6,9.6 -21.4,15.9 -3.1,2.9 -7.1,6.4 -8.8,7.7 -2.5,1.9 -3,3 -2.8,5.4 0.4,4.2 3.5,5.7 11.8,5.7 3.6,0 11,0.7 16.4,1.5 13,2 15.4,1.9 22.3,-0.6 9.6,-3.5 14.3,-9.4 14.3,-17.7 0,-6.1 -1.8,-9.8 -6.5,-13.7 -8.5,-6.9 -17.3,-8.4 -25.3,-4.2 z m 2060.5,-1.9 c -2,0.8 -5.9,2.9 -8.6,4.7 -3.8,2.7 -5.3,4.5 -7.1,9 -2,5 -2.1,6.1 -1,9.4 3.1,9.4 13.7,15.8 25.8,15.6 3.4,0 7.3,-0.3 8.5,-0.6 1.2,-0.3 7.7,-0.9 14.4,-1.4 22.2,-1.8 22,-3.2 -3.3,-25.5 -6.7,-5.8 -9.5,-7.6 -16,-9.9 -4.3,-1.5 -8.1,-2.7 -8.4,-2.7 -0.3,0.1 -2.2,0.7 -4.3,1.4 z m -477.8,0.2 c -6.2,1.8 -13.3,8.3 -15.5,14 -1.9,5 -1.2,9 2.5,15.1 2.6,4.2 5.5,6 13.6,8.3 5.8,1.7 7.8,1.8 14.4,0.9 4.2,-0.6 12.6,-1.4 18.8,-1.8 8.8,-0.6 11.7,-1.1 13.3,-2.6 2.9,-2.6 2.5,-5.3 -1.2,-8.3 -1.7,-1.5 -5.9,-5.3 -9.2,-8.4 -9.8,-9.1 -18.2,-14.4 -27.1,-17.1 -4.3,-1.2 -5.7,-1.2 -9.6,-0.1 z m -474.9,-1 c -8.8,3 -17.4,10.9 -18.6,17.1 -0.7,3.8 1.5,10.6 4.8,14.9 5.3,6.7 22.1,10.2 33.3,6.9 3.3,-0.9 10.2,-2 15.3,-2.4 10.7,-0.8 12.8,-2.1 11.1,-7 -0.9,-2.6 -5,-6.2 -22.3,-20.3 -8.1,-6.6 -18.9,-10.8 -23.6,-9.2 z m -147.7,0.5 c -7.8,1.5 -12.7,4.5 -22.1,13.8 -5.1,5 -9.7,9.1 -10.3,9.1 -2,0 -5.9,5.3 -5.9,8 0,3.9 1.5,4.7 10.5,5.4 4.4,0.3 11.8,1.1 16.5,1.8 11.7,1.7 19.9,1.4 24.7,-1 7.9,-4.1 13.3,-11.5 13.3,-18.5 0,-3.5 -4.9,-11.3 -8.7,-13.9 -3.1,-2.1 -12.7,-6.1 -13.6,-5.7 -0.1,0.1 -2.1,0.5 -4.4,1 z m -482.8,1.9 c -6.4,3.3 -11.7,7.3 -18.5,13.7 -2.5,2.3 -6.6,5.8 -9.1,7.7 -6.6,5 -7.6,8.4 -3.4,11.2 2.9,1.9 22.1,3.9 38,3.9 12.3,0 16.5,-1.9 21.3,-9.8 4.9,-8.1 5.6,-11 3.8,-14.9 -2.4,-5 -10.6,-11 -17.8,-13 -8,-2.3 -7.6,-2.3 -14.3,1.2 z m -76.5,-1.3 c -6,2.1 -13.7,7.5 -24.5,17.3 -9.9,9 -11.1,10.6 -10.1,14.4 0.8,3.3 5.2,4.5 21.6,5.9 19.9,1.7 23.7,1.5 30.2,-1.7 6.5,-3.1 8.9,-5.7 11.4,-12.2 2.4,-6.3 0.8,-11.4 -5.5,-17.3 -8.2,-7.7 -14.4,-9.5 -23.1,-6.4 z m -475.3,-0.2 c -5.4,0.9 -7.5,1.9 -10.5,4.7 -2,1.9 -5,4.3 -6.7,5.3 -1.6,1 -6.9,5.5 -11.7,9.9 -9.5,8.7 -10.8,11.5 -6.7,15.2 1.8,1.6 3.7,1.9 11.8,1.9 5.3,0.1 12.9,0.7 17,1.4 20.4,3.6 35,-6.1 34.2,-22.7 -0.2,-4.4 -14.7,-17.4 -19,-17.1 -0.9,0.1 -4.7,0.7 -8.4,1.4 z m 1103.8,-32.1 c -2.2,0.7 -5.9,1.8 -8.2,2.5 -6.3,1.7 -14.9,10.8 -16.9,17.9 -3.6,12.2 -0.1,23.3 9.6,31 9.9,7.9 23.7,9.8 37.8,5.4 8.1,-2.6 12.4,-6.2 18.4,-15.5 2.8,-4.5 3.3,-6 3.2,-11.2 -0.1,-9 -1.9,-12.9 -8.8,-20 -4.5,-4.6 -7.7,-6.8 -12.1,-8.5 -7.3,-2.8 -17.5,-3.5 -23,-1.6 z m -277,-4.3 c -2.2,0.6 -6,0.8 -8.4,0.6 -5,-0.5 -10.7,0.8 -11.4,2.6 -1,2.6 2.1,6.5 13.8,17.7 10,9.6 13,11.9 18,13.7 9.3,3.5 14.1,3.1 21.4,-1.8 3.3,-2.2 7.1,-5.5 8.3,-7.2 4.6,-6.4 1.7,-17.6 -5.9,-23.4 -3.6,-2.7 -4,-2.8 -17.7,-3 -7.8,-0.1 -15.9,0.3 -18.1,0.8 z m 1333.7,0 c -2.4,1.2 -5.9,4.2 -7.8,6.7 -2.8,3.7 -3.4,5.3 -3.4,9.4 0,5.9 1.7,9.4 6.6,13.8 13.8,12.1 26.5,8.9 47.2,-11.7 6.1,-6.2 11.2,-11.9 11.2,-12.8 0,-4.2 -10.1,-6.2 -36.5,-7.1 -11.9,-0.5 -13.4,-0.3 -17.3,1.7 z m -76.2,-0.8 c -5.7,2.1 -6.8,3 -11,8.6 -5,6.7 -5.3,11 -1.1,16.8 3.3,4.5 9.6,9.8 13.5,11.3 8.7,3.3 19.5,-1 32.2,-12.9 4.4,-4.2 9.9,-9.2 12.2,-11.2 3.3,-2.8 4.2,-4.3 4.2,-6.7 0,-3.8 0.6,-3.6 -18.5,-5.2 -23,-2 -27.7,-2.1 -31.5,-0.7 z m -79.8,-0.2 c -1.8,0.6 -5.5,3.1 -8.1,5.7 -5.4,5.2 -7.8,11.1 -6.7,15.9 1.5,5.7 14.1,15.2 22.4,16.9 5,1 17.1,-5.8 26.6,-15 4.7,-4.4 10.1,-9.4 12,-10.9 4.2,-3.4 4.9,-7.9 1.5,-9.7 -2.4,-1.3 -28.6,-4 -37.9,-3.9 -3.6,0 -8,0.5 -9.8,1 z m -74.9,-0.2 c -8.3,0.7 -11.2,2.4 -16,9.5 -2.7,3.9 -3.3,5.8 -3.3,9.9 0,4.7 0.3,5.3 5.3,10.2 5.6,5.7 12.3,8.5 19.9,8.5 5.2,0 13.6,-4.7 20.7,-11.7 3.1,-3.1 8.6,-8.3 12.4,-11.6 3.7,-3.3 6.7,-6.8 6.7,-7.8 0,-3 -5.3,-4.9 -15.3,-5.5 -5,-0.3 -11.9,-1 -15.2,-1.5 -3.3,-0.5 -6.4,-0.8 -7,-0.7 -0.5,0.1 -4.2,0.4 -8.2,0.7 z m -85,1.2 c -8.1,3.1 -11.6,7.9 -13.9,19.6 -0.5,2.7 -0.1,3.6 3.6,7.3 2.3,2.3 7.1,5.5 10.6,7.1 12.2,5.5 18.5,3.5 34,-10.9 3.3,-3.1 8.4,-7.8 11.2,-10.5 8.6,-7.9 6.8,-11.2 -6.5,-12.1 -4.9,-0.4 -12.4,-1.1 -16.8,-1.6 -11.4,-1.4 -16.3,-1.2 -22.2,1.1 z m -81.3,0.4 c -8.7,5.1 -12,9.8 -12,17.3 0,4.2 3.6,10.2 8.5,14 3.3,2.6 11.5,5.2 16.2,5.2 5.9,0 18.1,-7.8 26.9,-17.1 2.2,-2.4 5.9,-6 8.2,-8 4.9,-4.1 5.6,-8.1 2,-10 -2.4,-1.3 -15.9,-2.6 -34.3,-3.5 -10.5,-0.5 -11.2,-0.4 -15.5,2.1 z m -75,-1.9 c -0.8,0.3 -3.4,1.5 -5.8,2.6 -7,3.5 -12.5,13.7 -10.8,20.4 0.9,3.5 8,10 14.1,13 11.1,5.3 19.8,1.9 38.4,-15.1 9.7,-8.9 12.1,-11.5 12.1,-13.7 0,-3.6 -2.4,-4.8 -9.7,-4.8 -3.2,0 -7.4,-0.4 -9.3,-0.9 -4.1,-1.1 -26.8,-2.2 -29,-1.5 z m -82,1.6 c -10.1,3.8 -14.9,10.6 -13.5,19.4 0.8,5.8 4.6,10.1 12.6,14.2 8.1,4.2 14.4,4.3 21.1,0.4 6.5,-3.8 28.4,-23.8 29.8,-27.2 0.8,-2 0.9,-3.4 0.1,-4.8 -1,-1.8 -2.1,-2 -11.8,-2 -6,-0.1 -13.2,-0.6 -16.2,-1.1 -8.1,-1.6 -16,-1.2 -22.1,1.1 z m -78.9,-0.2 c -6.5,2.3 -7.7,3.3 -11.3,8.9 -3,4.8 -3.6,10.1 -1.5,13.7 3.3,5.5 8.3,10.4 12.7,12.3 11.4,4.9 20.6,1.1 38.3,-16.1 6.4,-6.2 11.7,-12.1 11.7,-13 0,-2.5 -3.9,-4.8 -8.1,-4.8 -2.1,0 -7.3,-0.7 -11.6,-1.5 -11,-2.1 -23.5,-1.9 -30.2,0.5 z m -78,-0.5 c -3,0.8 -6.5,1.9 -7.7,2.6 -2.8,1.4 -8.4,11.7 -8.4,15.3 0,9.1 12.9,19.5 24.2,19.6 3.9,0 5.8,-0.7 11.2,-4.4 7.9,-5.3 24.9,-19.8 27.1,-23.2 2.1,-3.3 1.9,-6.1 -0.7,-7.5 -1.9,-1 -31.6,-4 -37.8,-3.8 -1.4,0.1 -5,0.7 -7.9,1.4 z m -80.7,-0.1 c -5.9,1.9 -8.4,3.9 -12.1,9.8 -4.7,7.4 -4.5,11.5 0.8,17.3 5.4,5.8 14.1,10.7 19,10.7 2.1,0 7,-1.6 11.1,-3.5 5.8,-2.7 9.4,-5.4 17.2,-13 5.4,-5.4 10.2,-9.7 10.6,-9.7 0.4,0 1.3,-1.4 2.1,-3.1 1.2,-2.9 1.1,-3.3 -1,-5 -1.3,-1.1 -3.1,-1.9 -4,-1.9 -0.9,0 -8.3,-0.7 -16.6,-1.5 -17.9,-1.8 -21.7,-1.8 -27.1,-0.1 z m -84,0.5 c -3,1.8 -8.4,10 -9.9,14.9 -2.1,6.9 4.7,16.7 14.1,20.1 3,1.2 7.3,2.1 9.5,2.1 4.8,0 13.9,-4.4 18.9,-9.1 2,-1.9 7.7,-7.3 12.8,-12.1 5.1,-4.8 9.2,-9.4 9.2,-10.2 0,-0.8 -1.2,-2.4 -2.7,-3.6 -2.2,-1.7 -3.9,-2.1 -8.8,-1.9 -3.3,0.1 -10,-0.3 -15,-0.9 -14.1,-1.8 -24.4,-1.6 -28.1,0.7 z m -71.4,-1.2 c -9.2,1.5 -13.1,4.3 -16.6,11.8 -3.7,7.9 -3.3,11.7 2,17 4.4,4.4 11.6,8.6 16.9,9.9 7.1,1.7 17.5,-4.3 33.1,-19 11.2,-10.7 12.5,-13.1 8.4,-15.8 -4.5,-2.9 -34.2,-5.5 -43.8,-3.9 z m -296.1,-0.2 c -0.3,0.2 -5.9,0.9 -12.6,1.4 -13.2,0.9 -17.6,2.4 -18.1,5.9 -0.5,3.3 2.1,6.7 8.1,10.7 2.9,1.9 7.1,5.7 9.4,8.4 7.5,8.7 20.7,14 29.6,11.8 3.5,-0.9 12.2,-8.2 14.8,-12.3 4.8,-7.9 -0.1,-19.2 -10.5,-24 -3.9,-1.8 -6.8,-2.4 -12.7,-2.4 -4.2,0 -7.8,0.2 -8,0.5 z m -164.9,0.6 c -3.6,0.4 -9.9,1.1 -14,1.4 -9.3,0.7 -10.7,1.1 -11.5,3.5 -0.9,2.8 -0.3,3.5 13,15.9 14.2,13.3 20.1,17.1 26.5,17.1 9.5,0 20.7,-6.6 24.5,-14.6 2.3,-4.9 1,-9.3 -4.7,-15.6 -7.4,-8.1 -15.5,-10 -33.8,-7.7 z m -77.3,-0.5 c -0.3,0.3 -5.8,0.9 -12.1,1.3 -12.2,0.8 -15.6,2.1 -15.6,6.3 0,1.8 1.1,3.1 10,11.3 12.9,11.8 26.2,20.5 31.5,20.5 2.9,0 11.3,-4.2 16,-7.9 7.3,-5.9 9.1,-12.1 5.5,-18.9 -5.4,-10.2 -11.1,-13.1 -25.1,-13.2 -5.3,0 -9.8,0.3 -10.2,0.6 z m -80.2,0.4 c -3.8,0.4 -10.4,0.8 -14.5,0.9 -9,0.2 -12.4,1.6 -12.8,5.4 -0.3,2.1 0.4,3.4 2.9,5.5 1.8,1.5 7.7,6.9 13.3,11.9 16,14.7 23.5,17.1 35.7,11.7 14,-6.3 17.2,-19.8 7,-30 -6.3,-6.4 -12.1,-7.4 -31.6,-5.4 z m -240.5,0.1 c -3.6,0.4 -10.1,1.1 -14.5,1.5 -14,1.2 -14.9,3.5 -4.8,12.7 3.7,3.4 9.1,8.7 12.1,11.8 4,4.3 7,6.4 12.7,8.8 9.2,3.8 13.9,3.9 20.8,0.5 10.3,-5.2 14.5,-11.5 13.2,-19.9 -0.8,-5.7 -7.9,-14 -13.3,-15.5 -4.2,-1.1 -16.4,-1.1 -26.2,0.1 z m -79,0 c -2.5,0.5 -7.6,1.2 -11.5,1.5 -9.8,0.7 -11.3,1.1 -12.5,3.5 -1.6,3 0.8,6.3 13,17.3 8.5,7.7 12,10.2 18.7,13.1 4.5,1.9 8.8,3.5 9.6,3.5 0.8,0 4.6,-1.6 8.5,-3.5 5.6,-2.9 7.7,-4.6 10.7,-9 4.7,-6.8 4.4,-10.3 -1.4,-18 -3.2,-4.3 -5.1,-5.7 -9.6,-7.4 -6,-2.3 -16.8,-2.7 -25.5,-1 z m -78.9,-0.1 c -1.9,0.5 -7.1,1.1 -11.5,1.5 -8.7,0.7 -13.5,2 -13.7,3.9 -0.3,3 1.1,4.9 11.5,15.1 11.5,11.3 20.1,16.9 28,18.2 5.6,0.9 15.4,-4.2 20.5,-10.7 4.5,-5.7 4.7,-6.6 2.7,-13.2 -1.8,-6.2 -6.2,-11.7 -11.1,-13.9 -4.3,-2 -19.6,-2.5 -26.4,-0.9 z m -86.7,0.7 c -2.7,0.7 -7.2,1.3 -9.9,1.3 -5.9,0 -9.5,2.1 -9.5,5.4 0,2.5 1.5,4.1 7.7,8.3 2.4,1.6 5.3,4.3 6.6,6.1 3,4.1 8.4,8.3 16.9,13.4 6.1,3.6 7,3.9 11.5,3.2 6.4,-0.9 10.5,-2.8 14.8,-6.6 5.5,-4.8 7.9,-10.1 7.1,-16.2 -0.7,-6.3 -2.8,-9.1 -9.3,-12.8 -4.8,-2.7 -5.9,-2.9 -18,-3.1 -8.1,-0.2 -14.8,0.2 -17.9,1 z m 2142.6,-1.8 c -10.4,0.7 -13.5,1.9 -18.7,7.3 -9.4,9.8 -6,22.8 7.6,29.1 12.9,5.9 20.5,3.5 36.8,-11.7 5.4,-5 11,-10 12.4,-11.1 3.7,-2.7 4.4,-5.7 2.1,-8.5 -1.5,-1.9 -3.3,-2.4 -10.8,-3.1 -4.9,-0.4 -11,-1.3 -13.4,-1.8 -2.5,-0.6 -4.9,-1 -5.5,-0.9 -0.5,0.1 -5.3,0.4 -10.5,0.7 z m -1263.8,1.1 c -19.1,2.1 -22.5,3.2 -23,7.1 -0.3,2.2 0.6,3.4 4.5,6.5 2.6,2.2 7.8,6.9 11.5,10.6 6.5,6.5 16.4,13.2 21.2,14.4 1.3,0.3 5.2,-0.2 8.7,-1.2 5.3,-1.5 7.4,-2.8 12.3,-7.5 l 5.8,-5.7 -0.4,-7.1 c -0.4,-7.9 -1.7,-9.8 -9.8,-15.3 -5.8,-4 -9,-4.2 -30.8,-1.8 z m -471.2,-1 c -4.1,0.5 -11.3,1.3 -16,1.8 -4.7,0.5 -9.5,1.4 -10.8,2.1 -3.5,1.9 -2.9,5.7 1.8,10 2.2,2 7.5,7 11.8,11.1 17.1,16.5 29.6,18.3 43.3,6.2 8.1,-7.2 8.6,-12.8 2,-21.8 -6.2,-8.4 -16.1,-11.2 -32.1,-9.4 z m -74,0 c -3.6,0.5 -11.7,1.1 -18,1.5 -12.9,0.8 -16,2 -16,6.3 0,2.1 2.3,4.8 10.8,13 9.5,9 13.3,11.9 23.6,17.9 9.2,5.4 30.6,-8.4 30.6,-19.7 0,-7.9 -11,-18 -21.1,-19.3 -1.8,-0.2 -6.3,-0.1 -9.9,0.3 z m -403,0.1 c -34,4.4 -34.9,5 -23.3,16.1 3.1,2.9 7.8,7.5 10.6,10.2 2.7,2.7 7.7,6.2 11.1,7.8 3.4,1.6 7.2,3.6 8.6,4.3 3.9,2.3 7.5,1.8 14.8,-1.9 6.8,-3.4 11.2,-7.8 13.2,-13.1 2.6,-6.9 -5.1,-19.1 -13.8,-21.9 -6.7,-2.1 -12.6,-2.5 -21.2,-1.5 z m -77.5,-0.1 c -4.4,0.5 -12.9,1.2 -19,1.6 -6,0.3 -11.6,1.1 -12.2,1.7 -0.7,0.5 -1.3,2.3 -1.3,3.9 0,3.3 2.6,6.1 13.6,14.9 3.4,2.7 7.3,6.4 8.8,8.3 3.1,4.2 13.6,9.6 18.4,9.6 2,0 6.9,-1.4 11.1,-3 7,-2.8 7.9,-3.5 11.4,-8.9 2,-3.1 3.7,-7 3.7,-8.5 0,-1.6 -1.6,-5.5 -3.6,-8.8 -3.1,-5.1 -4.5,-6.4 -9.1,-8.5 -6.6,-2.8 -11.2,-3.3 -21.8,-2.3 z"
     style="color:#000000;font-style:normal;font-variant:normal;font-weight:normal;font-stretch:normal;font-size:medium;line-height:normal;font-family:sans-serif;text-indent:0;text-align:start;text-decoration:none;text-decoration-line:none;text-decoration-style:solid;text-decoration-color:#000000;letter-spacing:normal;word-spacing:normal;text-transform:none;direction:ltr;block-progression:tb;writing-mode:lr-tb;baseline-shift:baseline;text-anchor:start;white-space:normal;clip-rule:nonzero;display:inline;overflow:visible;visibility:visible;opacity:1;isolation:auto;mix-blend-mode:normal;color-interpolation:sRGB;color-interpolation-filters:linearRGB;solid-color:#000000;solid-opacity:1;fill:#800080;fill-opacity:1;fill-rule:evenodd;stroke:none;stroke-width:14.39999962;stroke-linecap:butt;stroke-linejoin:miter;stroke-miterlimit:4;stroke-dasharray:none;stroke-dashoffset:0;stroke-opacity:1;marker:none;color-rendering:auto;image-rendering:auto;shape-rendering:auto;text-rendering:auto;enable-background:accumulate"
     id="rect4167" />
</svg>
