<?xml version="1.0"?>
<svg xmlns:rdf="http://www.w3.org/1999/02/22-rdf-syntax-ns#" xmlns="http://www.w3.org/2000/svg" xmlns:cc="http://web.resource.org/cc/" xmlns:xlink="http://www.w3.org/1999/xlink" xmlns:dc="http://purl.org/dc/elements/1.1/" xmlns:svg="http://www.w3.org/2000/svg" id="svg2" viewBox="0 0 697.67 706.98" version="1.0">
  <defs id="defs4">
    <linearGradient id="linearGradient3861">
      <stop id="stop3863" stop-color="#ffae08" offset="0"/>
      <stop id="stop3869" stop-color="#ffa608" stop-opacity=".49804" offset=".5"/>
      <stop id="stop3871" stop-color="#ff7b08" stop-opacity=".24706" offset=".5"/>
      <stop id="stop3873" stop-color="#e07608" stop-opacity=".12157" offset=".875"/>
      <stop id="stop3875" stop-color="#ef7308" stop-opacity=".058824" offset=".875"/>
      <stop id="stop3865" stop-color="#ff7108" stop-opacity="0" offset="1"/>
    </linearGradient>
    <linearGradient id="linearGradient3851">
      <stop id="stop3853" offset="0"/>
      <stop id="stop3855" stop-color="#eecac7" stop-opacity="0" offset="1"/>
    </linearGradient>
    <linearGradient id="linearGradient3867" x1="-471.34" xlink:href="#linearGradient3861" gradientUnits="userSpaceOnUse" y1="540.54" gradientTransform="matrix(1.4454 0 0 1.1001 53.828 -58.3)" x2="-123.34" y2="623.45"/>
    <linearGradient id="linearGradient3882" x1="-395.14" xlink:href="#linearGradient3861" gradientUnits="userSpaceOnUse" y1="625.43" gradientTransform="matrix(-1.4095 -.12486 0 1.0316 221.36 -43.041)" x2="-174.11" y2="636.74"/>
    <linearGradient id="linearGradient3892" x1="-176.79" xlink:href="#linearGradient3851" gradientUnits="userSpaceOnUse" x2="445.86" y1="581.6" y2="216.4"/>
    <linearGradient id="linearGradient3914" x1="-389.44" xlink:href="#linearGradient3851" gradientUnits="userSpaceOnUse" y1="781.41" gradientTransform="matrix(-1.0403 -.092117 0 1 -26.694 .000040915)" x2="-544.08" y2="474.42"/>
    <linearGradient id="linearGradient3924" x1="248.87" xlink:href="#linearGradient3851" gradientUnits="userSpaceOnUse" x2="405" y1="747.41" y2="663.93"/>
    <linearGradient id="linearGradient3927" x1="-85.038" xlink:href="#linearGradient3851" gradientUnits="userSpaceOnUse" y1="710.21" gradientTransform="matrix(-1.4393 -.13377 0 1.1053 -58.071 -65.142)" x2="-288.01" y2="557.22"/>
  </defs>
  <g id="layer1" transform="translate(-20.834 -115.88)">
    <path id="path2886" stroke-linejoin="round" d="m371.25 152.22l-2.87 0.06c-87.26 2.28-159.81 62.3-183.13 143.5-1.8-1.95-4.87-2.92-9.81-2.84h-0.56c-21.19 0.8-37.99 26.73-37.76 58.25 0.24 31.81 17.8 57.35 39.19 57 3.68-0.06 6.3-1.07 8.13-2.85 23.11 85.29 100.27 147.55 191.12 146.54 88.1-0.99 162.02-61.18 185.82-143.04 1.38 0.53 3.03 0.82 4.96 0.85 21.4 0.35 38.96-25.19 39.19-57 0.23-31.52-16.59-57.45-37.78-58.25h-0.56c-2.38-0.04-4.3 0.18-5.88 0.62-24.31-83.38-100.52-143.85-190.06-142.84z" fill-rule="evenodd" stroke="#000" stroke-linecap="round" stroke-width="4.7532" fill="#fca"/>
    <path id="path3884" stroke-linejoin="round" d="m371.25 152.22l-2.87 0.06c-87.26 2.28-159.81 62.3-183.13 143.5-1.8-1.95-4.87-2.92-9.81-2.84h-0.56c-21.19 0.8-37.99 26.73-37.76 58.25 0.24 31.81 17.8 57.35 39.19 57 3.68-0.06 6.3-1.07 8.13-2.85 23.11 85.29 100.27 147.55 191.12 146.54 88.1-0.99 162.02-61.18 185.82-143.04 1.38 0.53 3.03 0.82 4.96 0.85 21.4 0.35 38.96-25.19 39.19-57 0.23-31.52-16.59-57.45-37.78-58.25h-0.56c-2.38-0.04-4.3 0.18-5.88 0.62-24.31-83.38-100.52-143.85-190.06-142.84z" fill-rule="evenodd" stroke="#000" stroke-linecap="round" stroke-width="4.7532" fill="url(#linearGradient3892)"/>
    <path id="path2894" stroke-width="1.0022px" stroke="#000" fill-rule="evenodd" d="m581.35 262.99c0.91 8.2 1.06 14.55-7.45 20.96-6.8 5.12-8.48 11.74-17.89 16.46-6.86 3.45-18.74 4.49-26.83 4.49-10.33 0-16.6-0.85-23.85-4.49-10.15-5.09-10.74-6.29-17.89-13.47-6.67-6.69-8.73-13.26-13.42-17.96-7.22-7.26-12.56-11.12-17.89-16.47-7.04-7.07-26.58 2.87-32.8 5.99-8.31 4.17-15.25 9.33-22.36 16.46-8.54 8.59-22.47 13.24-32.79 19.46-8.2 4.94-20.97 7.86-26.84 0-7.13-9.55 1.42-14.89 7.46-20.95 6.77-6.81-1.46-17.93-4.47-20.96-4.37-4.38-17.82-0.77-20.87 0-6.5 1.63-16.46 13.5-22.37 16.47-6.17 3.1-11.21 5.27-14.9 8.98-3.2 3.21-24.8 8.37-28.33 7.48-4.71-1.18 24.98-35.27 16.4-37.42-10.33-2.59-43.55 21.57-50.68 26.94-7.5 5.65-8.01 27.12-16.4 31.44-8.71 4.49-4.23-1.5-16.4-1.5-9.21 0-12.78-7.92-14.91-16.46-2.08-8.36-1.67-18.09-1.49-26.95 0.22-10.43 21.66-48.28 22.36-49.39 6.95-11.05-0.11-3.55 13.42-8.99 11.44-4.59 11.94-21.33 19.38-26.94 9.37-7.05 19.16-10.04 23.85-19.46 3.93-7.89 17.08-4.83 25.34-8.98 13.25-6.65 24.85-10.88 38.76-16.47 26.46-10.62 53.16-9.62 90.94-10.47 14.68-0.35 50.53-21.735 102.86 32.93 10.1 10.55 29.12 34.08 41.74 40.41 11.61 5.83-0.89 18.57 5.96 25.45 4.93 4.95 13.42 22.91 13.42 29.94 0 8.56 0.1 9.92 8.94 13.47z"/>
    <path id="path3781" stroke-linejoin="round" d="m86.536 363.71a60.369 59.624 0 1 1 -0.881 0.02" fill-rule="evenodd" transform="matrix(.75163 0 0 .70141 235.91 64.622)" stroke="#000" stroke-linecap="round" stroke-width="4.743" fill="#fff"/>
    <path id="path3783" stroke-linejoin="round" d="m86.536 363.71a60.369 59.624 0 1 1 -0.881 0.02" fill-rule="evenodd" transform="matrix(.75163 0 0 .70141 357.79 62.613)" stroke="#000" stroke-linecap="round" stroke-width="4.743" fill="#fff"/>
    <path id="path3785" stroke-linejoin="round" d="m-81.361 450.16a11.179 9.6889 0 1 1 -0.163 0" fill-rule="evenodd" transform="matrix(1.0001 0 0 1.0042 375.63 -86.77)" stroke="#000" stroke-linecap="round" stroke-width="4.743" fill="#000300"/>
    <path id="path3787" stroke-linejoin="round" d="m-81.361 450.16a11.179 9.6889 0 1 1 -0.163 0" fill-rule="evenodd" transform="matrix(1.0001 0 0 1.0042 499.36 -88.779)" stroke="#000" stroke-linecap="round" stroke-width="4.743" fill="#000300"/>
    <path id="path3789" stroke="#000" stroke-width="4.6099" fill="none" d="m256.01 318.46c6.9-3.27 13.36-10.92 23.16-13.38 10.58-2.65 24.08-3.9 32.72-4.16 3.58-0.1 14.05 13.25 14.91 14.97"/>
    <path id="path3791" stroke="#000" stroke-width="4.6099" fill="none" d="m462.36 315.4c-6.9-3.28-13.36-10.92-23.16-13.38-10.58-2.66-24.08-3.91-32.72-4.16-3.59-0.11-14.05 13.24-14.91 14.97"/>
    <path id="path3793" stroke="#000" stroke-width="3.0065" fill="none" d="m347.82 372.58c-8.67 7.08-12.65 22.28-12.65 38.1 0 13.24 3.42 19.05 16.87 19.05 6.41 0 7.55-5.46 10.54-8.47"/>
    <path id="path3795" stroke="#000" stroke-width="5.0108" fill="none" d="m345.71 361.99c5-12.84 31.22-15.01 31.37-2.35"/>
    <path id="path3797" stroke="#000" stroke-width="3.0065" fill="none" d="m257.86 352.8c-2.99 0.4-12.79-8.07-19.38-9.73-5.49-1.38-12.17-7.48-17.14-10.47-5.46-3.29-10.37-8.5-14.91-11.23-3.86-2.33-8.59-5.28-10.43-8.98-1.75-3.52-6.5-5.78-8.2-7.49-1.76-1.77-1.58-3.04-4.47-4.49"/>
    <path id="path3799" stroke="#000" stroke-width="3.0065" fill="none" d="m466.57 355.05c2.99 0.39 12.79-8.08 19.38-9.73 5.49-1.38 12.17-7.49 17.14-10.48 5.46-3.29 10.37-8.49 14.91-11.23 3.86-2.32 8.59-5.28 10.43-8.98 1.75-3.51 6.5-5.77 8.2-7.48 1.76-1.77 1.58-3.04 4.47-4.49"/>
    <path id="path3801" stroke="#000" stroke-width="2.9062" fill="none" d="m291.41 471.06c7.98 5.8 22.11 9.44 33.54 12.72 7.48 2.15 18.9 0 26.83 0 9.51 0 19.41 0.75 29.07 0.75h34.29c2.35 0 3.81-0.4 5.21-0.75"/>
    <rect id="rect3805" stroke-linejoin="round" stroke-width="1.0151" fill-rule="evenodd" rx="26.425" transform="matrix(-.99592 -.090243 0 1 0 0)" ry="19.481" width="229.01" stroke="#000" stroke-linecap="round" y="472.37" x="-351.95" height="305.41" fill="#fff8ff"/>
    <rect id="rect3809" stroke-linejoin="round" stroke-width="1.0151" fill-rule="evenodd" rx="26.425" transform="matrix(-.99592 -.090243 0 1 0 0)" ry="19.481" width="229.01" stroke="#000" stroke-linecap="round" y="476.14" x="-353.72" height="305.41" fill="#fff8ff"/>
    <rect id="rect3807" stroke-linejoin="round" stroke-width="1.0151" fill-rule="evenodd" rx="26.425" ry="19.481" transform="matrix(-.99592 -.090243 0 1 0 0)" width="229.01" stroke="#000" stroke-linecap="round" y="476.14" x="-353.72" height="305.41" fill="#fff8ff"/>
    <path id="path3825" stroke-linejoin="round" d="m120.07 622.66c23.73-0.22 43.2 15.84 43.46 35.84s-75.086 73.87-98.814 74.09c-23.727 0.23-43.196-15.83-43.458-35.83-0.258-19.82 74.682-73.58 98.182-74.09" fill-rule="evenodd" stroke="#000" stroke-linecap="round" stroke-width=".84841" fill="#fca"/>
    <rect id="rect3811" stroke-linejoin="round" stroke-width="3.5681" fill-rule="evenodd" rx="26.425" ry="19.481" transform="matrix(-.99592 -.090243 0 1 0 0)" width="229.01" stroke="#000" stroke-linecap="round" y="481.47" x="-351.95" height="305.41" fill="#ff4408"/>
    <path id="rect3859" opacity=".67029" d="m-323.22 482.78l173.71 4.35c13.88 0 25.05 8.41 25.05 18.85v257.81c0 10.44-11.17 18.85-25.05 18.85l-163.98 2.51c-13.88 0-29.54 2.36-29.54-8.08v-281.66c0-10.44 5.93-12.63 19.81-12.63z" fill-rule="evenodd" transform="matrix(-.99575 -.092117 0 1 0 0)" fill="url(#linearGradient3867)"/>
    <path id="rect3894" opacity=".67029" fill-rule="evenodd" fill="url(#linearGradient3927)" d="m316.63 511.88l-172.23-13.21c-13.82-1.29-24.94 9.12-24.94 19.61v259.02c0 10.49 6.65 23.71 20.47 25l180.43 15.45c13.82 1.29 17.49-0.14 17.49-10.63l-1.49-284.47c0-16.48-5.91-9.49-19.73-10.77z"/>
    <path id="path2882" d="m108.91 613.16c0.21 17.99-11.813 26.31-9.024 44.03 5.104 32.42 1.004 15.95 1.504 19.04 1.96 12.04 4.6 28.56 4.6 40.81 0 6.1 6.56 10.21 11.96 10.21h14.32c6.03 0 7.74-2.11 11.3-6.5 3.34-4.11 6.6-6.51 7.54-11.13 1.3-6.41 2.43-11.02-2.27-13.91-8.84-5.44-4.33-4.93 3.77-7.42 4.52-1.39 8.12-5.41 11.3-8.35 5.57-5.14-7.32-12.64-9.04-13.91-3.26-2.41-9.43-3.02-13.56-5.56-5.98-3.69 7.16-3.17 9.8-3.71 6.61-1.36 11.56-2.8 16.57-6.5 5.38-3.97-1.13-9.5-3.77-11.13-5.75-3.54-12.14-4.63-18.83-4.63h6.03c7.07 0 9.56-3.79 15.06-6.5 4.21-2.07 3.02-10.52 3.02-14.84 0-3.98-13.95-4.63-16.58-4.63h-36.16c-4.66 0-4.01-0.79-7.54 4.63z" fill-rule="evenodd" stroke="#000" stroke-width=".56082px" fill="#fca"/>
    <rect id="rect3813" stroke-linejoin="round" stroke-width="1.0631" fill-rule="evenodd" rx="29.451" ry="19.172" transform="matrix(.99682 -.079685 0 1 0 0)" width="255.25" stroke="#000" stroke-linecap="round" y="532.95" x="365.08" height="300.57" fill="#fff8ff"/>
    <rect id="rect3815" stroke-linejoin="round" stroke-width="1.0191" fill-rule="evenodd" rx="27.057" ry="19.175" transform="matrix(.99623 -.086750 0 1 0 0)" width="234.49" stroke="#000" stroke-linecap="round" y="541.07" x="384.54" height="300.61" fill="#fff8ff"/>
    <path id="path3828" stroke-linejoin="round" d="m614.09 637.62c-24.98-0.2-45.47 14.11-45.75 31.94-0.27 17.83 79.03 65.85 104.01 66.04 24.97 0.2 45.47-14.11 45.74-31.94 0.27-17.66-78.61-65.58-103.34-66.04" fill-rule="evenodd" stroke="#000" stroke-linecap="round" stroke-width=".82177" fill="#fca"/>
    <rect id="rect3817" stroke-linejoin="round" stroke-width=".97174" fill-rule="evenodd" rx="24.833" transform="matrix(.99561 -.093638 0 1 0 0)" ry="18.996" width="215.22" stroke="#000" stroke-linecap="round" y="548.36" x="404.23" height="297.81" fill="#fff8ff"/>
    <rect id="rect3819" stroke-linejoin="round" stroke-width="3.766" fill-rule="evenodd" rx="26.876" transform="matrix(.99618 -.087311 0 1 0 0)" ry="19.17" width="232.92" stroke="#000" stroke-linecap="round" y="546.69" x="387.78" height="300.53" fill="#ff4408"/>
    <path id="rect3877" opacity=".67029" fill-rule="evenodd" fill="url(#linearGradient3882)" d="m595.89 496.69l-194.13 18.37c-13.54-1.2 0.17 8.7 0.17 18.49l4.47 249.2c0 9.8-10.72 22.37 2.81 23.57l184.45-13.15c12.04-1.79 20.69-7.96 20.69-17.75l0.75-256.66c0.74-13.52-5.68-20.87-19.21-22.07z"/>
    <path id="path2884" d="m622.02 621.44c-0.25 15.26 6.43 25.02 3.63 40.11-0.49 2.64 0.98 16.33 0.39 18.96-2.28 10.21 1.67 21.47 1.67 31.87 0 5.18-9.92 5.89-16.22 5.89h-16.67c-7.02 0-9.02-1.79-13.17-5.51-3.89-3.49-7.68-5.54-8.77-9.45-1.52-5.45-2.84-9.36 2.63-11.81 10.31-4.62 5.05-4.18-4.39-6.3-5.26-1.18-9.45-4.59-13.16-7.08-6.49-4.37 8.53-10.73 10.53-11.81 3.79-2.04 10.98-2.57 15.8-4.73 6.97-3.12-8.34-2.68-11.41-3.14-7.71-1.16-13.47-2.37-19.31-5.51-6.26-3.38 1.32-8.07 4.39-9.45 6.7-3.01 14.15-3.94 21.94-3.94h-7.02c-8.24 0-11.15-3.21-17.55-5.51-4.9-1.76-3.51-8.93-3.51-12.59 0-3.39 16.25-3.94 19.3-3.94h42.13c5.42 0 4.67-0.67 8.77 3.94z" fill-rule="evenodd" stroke="#000" stroke-width=".55762px" fill="#fca"/>
    <rect id="rect3823" stroke-linejoin="round" fill-rule="evenodd" rx="27.544" ry="25.744" height="314.29" width="60.148" stroke="#000" stroke-linecap="round" y="506.79" x="343.07" stroke-width="3.5608" fill="#ff4408"/>
    <path id="rect3898" opacity=".67029" fill-rule="evenodd" fill="url(#linearGradient3914)" d="m600.97 496.91l-175.97 18.15c-14.43-1.27-20.09 12.81-20.09 23.25l-0.75 268.24c0 10.45-8.98 1.25 5.46 2.53l185.05-18.9c14.44 1.28 18.6-10.57 18.6-21.02l1.83-242.15c0-10.44 0.3-28.82-14.13-30.1z"/>
    <rect id="rect3916" stroke-linejoin="round" fill-rule="evenodd" rx="27.544" ry="25.744" height="314.29" width="60.148" stroke="#000" stroke-linecap="round" y="506.79" x="343.07" stroke-width="3.5608" fill="url(#linearGradient3924)"/>
  </g>
  <metadata>
    <rdf:RDF>
      <cc:Work>
        <dc:format>image/svg+xml</dc:format>
        <dc:type rdf:resource="http://purl.org/dc/dcmitype/StillImage"/>
        <cc:license rdf:resource="http://creativecommons.org/licenses/publicdomain/"/>
        <dc:publisher>
          <cc:Agent rdf:about="http://openclipart.org/">
            <dc:title>Openclipart</dc:title>
          </cc:Agent>
        </dc:publisher>
        <dc:title>reading man with glasses</dc:title>
        <dc:date>2007-02-08T21:16:34</dc:date>
        <dc:description>A simple picture of a man with glasses reading an orange book.</dc:description>
        <dc:source>http://openclipart.org/detail/3133/reading-man-with-glasses-by-nlyl</dc:source>
        <dc:creator>
          <cc:Agent>
            <dc:title>nlyl</dc:title>
          </cc:Agent>
        </dc:creator>
        <dc:subject>
          <rdf:Bag>
            <rdf:li>book</rdf:li>
            <rdf:li>clip art</rdf:li>
            <rdf:li>clipart</rdf:li>
            <rdf:li>education</rdf:li>
            <rdf:li>glasses</rdf:li>
            <rdf:li>image</rdf:li>
            <rdf:li>man</rdf:li>
            <rdf:li>media</rdf:li>
            <rdf:li>people</rdf:li>
            <rdf:li>person</rdf:li>
            <rdf:li>png</rdf:li>
            <rdf:li>public domain</rdf:li>
            <rdf:li>reading</rdf:li>
            <rdf:li>school</rdf:li>
            <rdf:li>svg</rdf:li>
            <rdf:li>work</rdf:li>
          </rdf:Bag>
        </dc:subject>
      </cc:Work>
      <cc:License rdf:about="http://creativecommons.org/licenses/publicdomain/">
        <cc:permits rdf:resource="http://creativecommons.org/ns#Reproduction"/>
        <cc:permits rdf:resource="http://creativecommons.org/ns#Distribution"/>
        <cc:permits rdf:resource="http://creativecommons.org/ns#DerivativeWorks"/>
      </cc:License>
    </rdf:RDF>
  </metadata>
</svg>
